<?xml version="1.0" encoding="utf-8" ?>
<svg baseProfile="full" height="1300" version="1.1" width="900" xmlns="http://www.w3.org/2000/svg" xmlns:ev="http://www.w3.org/2001/xml-events" xmlns:xlink="http://www.w3.org/1999/xlink"><defs /><rect fill="white" height="100%" width="100%" x="0" y="0" /><g /><g /><g transform="translate(30,330.0)"><rect fill="white" height="220.0" stroke="#2A363B" stroke-width="0" width="200" x="0" y="0" /><text alignment-baseline="middle" fill="black" font-family="Helvetica" font-size="24px" font-weight="normal" stroke="black" stroke-width="0" text-anchor="middle" x="100.0" y="-20">Wave</text><rect fill="#99B898" height="110.0" stroke="#2A363B" stroke-width="1" width="200" x="0" y="110.0" /><text alignment-baseline="middle" fill="black" font-family="Helvetica" font-size="16" font-weight="normal" stroke="black" stroke-width="0" text-anchor="middle" x="100.0" y="165.0">SRAM Area</text><rect fill="#99B898" height="110.0" stroke="#2A363B" stroke-width="1" width="200" x="0" y="0.0" /><text alignment-baseline="middle" fill="black" font-family="Helvetica" font-size="16" font-weight="normal" stroke="black" stroke-width="0" text-anchor="middle" x="100.0" y="55.0">Peripheral</text></g><g transform="translate(30,270.0)"><rect fill="white" height="60" stroke="#2A363B" stroke-width="0" width="200" x="0" y="0" /><text alignment-baseline="middle" fill="black" font-family="Helvetica" font-size="24px" font-weight="normal" stroke="black" stroke-width="0" text-anchor="middle" x="100.0" y="-20">Wave</text><g><polyline fill="#99B898" points="0,27.0 1,26.998264140047837 2,26.99305957340112 3,26.984395334458657 4,26.97228646312585 5,26.956753978707507 6,26.93782484342129 7,26.915531915595068 8,26.889913892629476 9,26.861015243824628 10,26.82888613318766 11,26.793582332355026 12,26.755165123780746 13,26.71370119435866 14,26.669262519663313 15,26.621926239010435 16,26.571774521553895 17,26.51889442365156 18,26.463377737747642 19,26.40532083303388 20,26.344824488166115 21,26.28199371632665 22,26.21693758293609 23,26.149769016331028 24,26.08060461173628 25,26.009564428871894 26,25.936771783546302 27,25.862353033597334 28,25.786437359552714 29,25.709156540390765 30,25.63064472479054 31,25.5510381982685 32,25.470475146605978 33,25.389095415977973 34,25.307040270199803 35,25.224452145512892 36,25.141474403335405 37,25.058251081406915 38,24.974926643759037 39,24.891645729946127 40,24.808552903971247 41,24.725792403343323 42,24.643507888701016 43,24.561842194437972 44,24.480937080762335 45,24.400932987620852 46,24.32196879091482 47,24.24418156143096 48,24.167706326905716 49,24.092675837636037 50,24.019220336043432 51,23.94746733059139 52,23.877541374448516 53,23.809563849281698 54,23.74365275455452 55,23.679922502696723 56,23.618483720500247 57,23.559443057086618 58,23.502902998779 59,23.448961691200306 60,23.397712768906132 61,23.349245192848276 62,23.303643095950996 63,23.260985637068032 64,23.221346863573917 65,23.184795582828116 66,23.151395242735074 67,23.121203821607544 68,23.094273727524367 69,23.070651707357367 70,23.05037876562534 71,23.03349009331595 72,23.02001500679911 73,23.00997689693785 74,23.003393188485074 75,23.000275309836628 76,23.000628673193187 77,23.004452665165452 78,23.011740647838906 79,23.022479970296292 80,23.03665199057784 81,23.054232108041106 82,23.07518980606423 83,23.099488705018523 84,23.127086625418407 85,23.1579356611391 86,23.191982262574932 87,23.22916732959396 88,23.26942631412753 89,23.31268933221667 90,23.35888128532088 91,23.407921990678645 92,23.45972632049351 93,23.514204349704002 94,23.571261512080945 95,23.63079876438118 96,23.692712758272776 97,23.756896019733265 98,23.82323713560947 99,23.891620947015166 100,23.961928749230758 101,24.034038497758047 102,24.107825020172413 103,24.183160233404585 104,24.259913366074922 105,24.337951185494227 106,24.417138228937006 107,24.49733703878582 108,24.57840840113844 109,24.660211587463696 110,24.74260459888648 111,24.825444412677932 112,24.90858723052284 113,24.991888728133397 114,25.07520430577595 115,25.15838933927588 116,25.24129943106491 117,25.323790660835073 118,25.40571983536421 119,25.486944737079337 120,25.567324370926453 121,25.646719209118192 122,25.724991433334523 123,25.802005173956072 124,25.87762674591472 125,25.951724880752188 126,26.024170954483683 127,26.09483921087112 128,26.16360697971834 129,26.230354889809416 130,26.294967076120322 131,26.35733138094442 132,26.417339548582518 133,26.47488741325962 134,26.52987507994209 135,26.582207097741477 136,26.631792625603865 137,26.67854558999723 138,26.72238483432304 139,26.763234259792736 140,26.801022957524573 141,26.835685331631517 142,26.867161213086504 143,26.895395964167463 144,26.92034057330073 145,26.941951740138293 146,26.96019195072111 147,26.975029542598122 148,26.986438759787795 149,26.994399797486928 150,26.998898836448998 151,26.99992806697245 152,26.99748570245724 153,26.991575982506113 154,26.982209165565262 155,26.969401511117095 156,26.953175251456045 157,26.93355855309644 158,26.91058546787935 159,26.884295873863383 160,26.854735406101952 161,26.821955377427205 162,26.786012689378154 163,26.746969733427555 164,26.704894282679057 165,26.659859374222584 166,26.611943182352174 167,26.561228882866356 168,26.507804508686608 169,26.45176279704454 170,26.393201028503043 171,26.332220858090853 172,26.268928138843666 173,26.203432738058087 174,26.13584834657739 175,26.066292281440138 176,25.994885282234232 177,25.9217513015099 178,25.847017289615422 179,25.77081297432911 180,25.69327063567005 181,25.614524876278523 182,25.534712387764653 183,25.45397171343094 184,25.37244300778046 185,25.29026779322832 186,25.207588714438504 187,25.12454929071278 188,25.041293666861232 189,24.957966362987104 190,24.87471202362011 191,24.7916751666338 192,24.708999932382774 193,24.6268298334952 194,24.545307505755 195,24.464574460506118 196,24.384770839008606 197,24.306035169173057 198,24.228504125095558 199,24.15231228981056 200,24.077591921673623 200,24.0 200,0.0 0,0.0 0,27.0" stroke="#2A363B" stroke-width="1" /><polyline fill="#99B898" points="0,37.0 1,36.99826414004784 2,36.99305957340112 3,36.98439533445866 4,36.97228646312585 5,36.95675397870751 6,36.93782484342129 7,36.91553191559507 8,36.88991389262947 9,36.86101524382463 10,36.82888613318766 11,36.79358233235502 12,36.75516512378074 13,36.71370119435866 14,36.66926251966331 15,36.621926239010435 16,36.5717745215539 17,36.51889442365156 18,36.46337773774764 19,36.40532083303388 20,36.34482448816611 21,36.28199371632665 22,36.21693758293609 23,36.14976901633103 24,36.08060461173628 25,36.0095644288719 26,35.9367717835463 27,35.86235303359733 28,35.786437359552714 29,35.709156540390765 30,35.630644724790535 31,35.5510381982685 32,35.47047514660598 33,35.38909541597798 34,35.307040270199806 35,35.22445214551289 36,35.14147440333541 37,35.058251081406915 38,34.97492664375904 39,34.89164572994613 40,34.80855290397125 41,34.72579240334333 42,34.643507888701016 43,34.56184219443797 44,34.48093708076233 45,34.40093298762085 46,34.32196879091482 47,34.244181561430956 48,34.167706326905716 49,34.09267583763604 50,34.01922033604343 51,33.94746733059139 52,33.87754137444852 53,33.8095638492817 54,33.743652754554525 55,33.679922502696726 56,33.618483720500244 57,33.55944305708662 58,33.502902998779 59,33.44896169120031 60,33.39771276890613 61,33.34924519284828 62,33.303643095950996 63,33.26098563706803 64,33.22134686357392 65,33.184795582828116 66,33.15139524273507 67,33.121203821607544 68,33.09427372752437 69,33.07065170735737 70,33.05037876562534 71,33.033490093315955 72,33.020015006799106 73,33.00997689693785 74,33.00339318848508 75,33.000275309836624 76,33.000628673193184 77,33.00445266516545 78,33.011740647838906 79,33.022479970296295 80,33.036651990577845 81,33.054232108041106 82,33.07518980606423 83,33.09948870501852 84,33.12708662541841 85,33.1579356611391 86,33.19198226257493 87,33.229167329593956 88,33.26942631412753 89,33.31268933221667 90,33.35888128532088 91,33.407921990678645 92,33.45972632049351 93,33.514204349704 94,33.571261512080945 95,33.630798764381176 96,33.692712758272776 97,33.75689601973326 98,33.82323713560947 99,33.89162094701517 100,33.96192874923076 101,34.03403849775805 102,34.10782502017241 103,34.183160233404585 104,34.259913366074926 105,34.33795118549423 106,34.417138228937006 107,34.497337038785815 108,34.57840840113844 109,34.66021158746369 110,34.74260459888648 111,34.82544441267793 112,34.90858723052284 113,34.9918887281334 114,35.075204305775955 115,35.15838933927588 116,35.24129943106491 117,35.32379066083507 118,35.40571983536421 119,35.486944737079334 120,35.56732437092645 121,35.64671920911819 122,35.72499143333452 123,35.802005173956076 124,35.877626745914725 125,35.95172488075219 126,36.02417095448368 127,36.094839210871115 128,36.16360697971834 129,36.23035488980942 130,36.29496707612032 131,36.357331380944416 132,36.41733954858252 133,36.47488741325962 134,36.52987507994209 135,36.582207097741474 136,36.631792625603865 137,36.678545589997235 138,36.722384834323044 139,36.76323425979274 140,36.80102295752457 141,36.83568533163152 142,36.867161213086504 143,36.89539596416746 144,36.920340573300734 145,36.94195174013829 146,36.96019195072111 147,36.97502954259812 148,36.986438759787795 149,36.99439979748693 150,36.998898836449 151,36.99992806697245 152,36.99748570245724 153,36.99157598250611 154,36.98220916556526 155,36.96940151111709 156,36.953175251456045 157,36.93355855309644 158,36.91058546787935 159,36.88429587386339 160,36.85473540610195 161,36.8219553774272 162,36.786012689378154 163,36.746969733427555 164,36.70489428267906 165,36.659859374222584 166,36.61194318235217 167,36.56122888286636 168,36.50780450868661 169,36.451762797044545 170,36.39320102850304 171,36.33222085809086 172,36.26892813884366 173,36.20343273805809 174,36.13584834657739 175,36.066292281440134 176,35.994885282234236 177,35.9217513015099 178,35.84701728961542 179,35.77081297432911 180,35.69327063567005 181,35.61452487627852 182,35.53471238776466 183,35.45397171343094 184,35.37244300778046 185,35.29026779322832 186,35.20758871443851 187,35.12454929071278 188,35.041293666861236 189,34.9579663629871 190,34.874712023620106 191,34.7916751666338 192,34.708999932382774 193,34.6268298334952 194,34.545307505755005 195,34.464574460506114 196,34.3847708390086 197,34.30603516917306 198,34.228504125095554 199,34.15231228981056 200,34.07759192167362 200,36.0 200,60.0 0,60.0 0,37.0" stroke="#2A363B" stroke-width="1" /></g></g><g transform="translate(30,50.0)"><rect fill="white" height="220.0" stroke="#2A363B" stroke-width="0" width="200" x="0" y="0" /><text alignment-baseline="middle" fill="black" font-family="Helvetica" font-size="24px" font-weight="normal" stroke="black" stroke-width="0" text-anchor="middle" x="100.0" y="-20">Wave</text><rect fill="#99B898" height="220.0" stroke="#2A363B" stroke-width="1" width="200" x="0" y="0.0" /><text alignment-baseline="middle" fill="black" font-family="Helvetica" font-size="16" font-weight="normal" stroke="black" stroke-width="0" text-anchor="middle" x="100.0" y="110.0">External Device</text></g><g transform="translate(260,330.0)"><rect fill="white" height="220.0" stroke="#2A363B" stroke-width="1" width="200" x="0" y="0" /><text alignment-baseline="middle" fill="black" font-family="Helvetica" font-size="24px" font-weight="normal" stroke="black" stroke-width="0" text-anchor="middle" x="100.0" y="-20">Double-wave</text><rect fill="#99B898" height="110.0" stroke="#2A363B" stroke-width="1" width="200" x="0" y="110.0" /><text alignment-baseline="middle" fill="black" font-family="Helvetica" font-size="16" font-weight="normal" stroke="black" stroke-width="0" text-anchor="middle" x="100.0" y="165.0">SRAM Area</text><rect fill="#99B898" height="110.0" stroke="#2A363B" stroke-width="1" width="200" x="0" y="0.0" /><text alignment-baseline="middle" fill="black" font-family="Helvetica" font-size="16" font-weight="normal" stroke="black" stroke-width="0" text-anchor="middle" x="100.0" y="55.0">Peripheral</text></g><g transform="translate(260,270.0)"><rect fill="white" height="60" stroke="#2A363B" stroke-width="1" width="200" x="0" y="0" /><text alignment-baseline="middle" fill="black" font-family="Helvetica" font-size="24px" font-weight="normal" stroke="black" stroke-width="0" text-anchor="middle" x="100.0" y="-20">Double-wave</text><g><rect fill="#99B898" height="60.0" width="200" x="0" y="0.0" /><polyline fill="none" points="0,24.0 0,0.0 200,0.0 200,24.0" stroke="#2A363B" stroke-width="1" /><polyline fill="none" points="0,36.0 0,60.0 200,60.0 200,36.0" stroke="#2A363B" stroke-width="1" /><polyline fill="none" points="-10.0,26.0 -9.0,25.87758256189037 -8.0,25.54030230586814 -7.0,25.070737201667704 -6.0,24.583853163452858 -5.0,24.198856384453066 -4.0,24.010007503399553 -3.0,24.063543312709204 -2.0,24.346356379136388 -1.0,24.78920420056922 0.0,25.283662185463225 1.0,25.70866977429126 2.0,25.960170286650367 3.0,25.976587625728023 4.0,25.753902254343306 5.0,25.346635317835027 6.0,24.854499966191387 7.0,24.397988097315178 8.0,24.088869738115324 9.0,24.002827843803622" stroke="#2A363B" stroke-width="1" /><polyline fill="none" points="-10.0,36.0 -9.0,35.87758256189037 -8.0,35.54030230586814 -7.0,35.070737201667704 -6.0,34.58385316345286 -5.0,34.198856384453066 -4.0,34.01000750339956 -3.0,34.06354331270921 -2.0,34.34635637913639 -1.0,34.78920420056922 0.0,35.28366218546323 1.0,35.70866977429126 2.0,35.96017028665037 3.0,35.97658762572802 4.0,35.7539022543433 5.0,35.34663531783502 6.0,34.85449996619138 7.0,34.39798809731518 8.0,34.08886973811532 9.0,34.00282784380362" stroke="#2A363B" stroke-width="1" /><polyline fill="none" points="190.0,26.0 191.0,25.87758256189037 192.0,25.54030230586814 193.0,25.070737201667704 194.0,24.583853163452858 195.0,24.198856384453066 196.0,24.010007503399553 197.0,24.063543312709204 198.0,24.346356379136388 199.0,24.78920420056922 200.0,25.283662185463225 201.0,25.70866977429126 202.0,25.960170286650367 203.0,25.976587625728023 204.0,25.753902254343306 205.0,25.346635317835027 206.0,24.854499966191387 207.0,24.397988097315178 208.0,24.088869738115324 209.0,24.002827843803622" stroke="#2A363B" stroke-width="1" /><polyline fill="none" points="190.0,36.0 191.0,35.87758256189037 192.0,35.54030230586814 193.0,35.070737201667704 194.0,34.58385316345286 195.0,34.198856384453066 196.0,34.01000750339956 197.0,34.06354331270921 198.0,34.34635637913639 199.0,34.78920420056922 200.0,35.28366218546323 201.0,35.70866977429126 202.0,35.96017028665037 203.0,35.97658762572802 204.0,35.7539022543433 205.0,35.34663531783502 206.0,34.85449996619138 207.0,34.39798809731518 208.0,34.08886973811532 209.0,34.00282784380362" stroke="#2A363B" stroke-width="1" /></g></g><g transform="translate(260,50.0)"><rect fill="white" height="220.0" stroke="#2A363B" stroke-width="1" width="200" x="0" y="0" /><text alignment-baseline="middle" fill="black" font-family="Helvetica" font-size="24px" font-weight="normal" stroke="black" stroke-width="0" text-anchor="middle" x="100.0" y="-20">Double-wave</text><rect fill="#99B898" height="220.0" stroke="#2A363B" stroke-width="1" width="200" x="0" y="0.0" /><text alignment-baseline="middle" fill="black" font-family="Helvetica" font-size="16" font-weight="normal" stroke="black" stroke-width="0" text-anchor="middle" x="100.0" y="110.0">External Device</text></g><g transform="translate(490,330.0)"><rect fill="white" height="220.0" stroke="#2A363B" stroke-width="0" width="200" x="0" y="0" /><text alignment-baseline="middle" fill="black" font-family="Helvetica" font-size="24px" font-weight="normal" stroke="black" stroke-width="0" text-anchor="middle" x="100.0" y="-20">Diagonal</text><rect fill="#99B898" height="110.0" stroke="#2A363B" stroke-width="1" width="200" x="0" y="110.0" /><text alignment-baseline="middle" fill="black" font-family="Helvetica" font-size="16" font-weight="normal" stroke="black" stroke-width="0" text-anchor="middle" x="100.0" y="165.0">SRAM Area</text><rect fill="#99B898" height="110.0" stroke="#2A363B" stroke-width="1" width="200" x="0" y="0.0" /><text alignment-baseline="middle" fill="black" font-family="Helvetica" font-size="16" font-weight="normal" stroke="black" stroke-width="0" text-anchor="middle" x="100.0" y="55.0">Peripheral</text></g><g transform="translate(490,270.0)"><rect fill="white" height="60" stroke="#2A363B" stroke-width="0" width="200" x="0" y="0" /><text alignment-baseline="middle" fill="black" font-family="Helvetica" font-size="24px" font-weight="normal" stroke="black" stroke-width="0" text-anchor="middle" x="100.0" y="-20">Diagonal</text><g><polyline fill="#99B898" points="0,0.0 200,0.0 200,18.0 0,30.0 0,0.0" stroke="#2A363B" stroke-width="1" /><polyline fill="#99B898" points="0,60.0 200,60.0 200,30.0 0,42.0 0,60.0" stroke="#2A363B" stroke-width="1" /></g></g><g transform="translate(490,50.0)"><rect fill="white" height="220.0" stroke="#2A363B" stroke-width="0" width="200" x="0" y="0" /><text alignment-baseline="middle" fill="black" font-family="Helvetica" font-size="24px" font-weight="normal" stroke="black" stroke-width="0" text-anchor="middle" x="100.0" y="-20">Diagonal</text><rect fill="#99B898" height="220.0" stroke="#2A363B" stroke-width="1" width="200" x="0" y="0.0" /><text alignment-baseline="middle" fill="black" font-family="Helvetica" font-size="16" font-weight="normal" stroke="black" stroke-width="0" text-anchor="middle" x="100.0" y="110.0">External Device</text></g><g transform="translate(720,330.0)"><rect fill="white" height="220.0" stroke="#2A363B" stroke-width="1" width="200" x="0" y="0" /><text alignment-baseline="middle" fill="black" font-family="Helvetica" font-size="24px" font-weight="normal" stroke="black" stroke-width="0" text-anchor="middle" x="100.0" y="-20">Dots</text><rect fill="#99B898" height="110.0" stroke="#2A363B" stroke-width="1" width="200" x="0" y="110.0" /><text alignment-baseline="middle" fill="black" font-family="Helvetica" font-size="16" font-weight="normal" stroke="black" stroke-width="0" text-anchor="middle" x="100.0" y="165.0">SRAM Area</text><rect fill="#99B898" height="110.0" stroke="#2A363B" stroke-width="1" width="200" x="0" y="0.0" /><text alignment-baseline="middle" fill="black" font-family="Helvetica" font-size="16" font-weight="normal" stroke="black" stroke-width="0" text-anchor="middle" x="100.0" y="55.0">Peripheral</text></g><g transform="translate(720,270.0)"><rect fill="white" height="60" stroke="#2A363B" stroke-width="1" width="200" x="0" y="0" /><text alignment-baseline="middle" fill="black" font-family="Helvetica" font-size="24px" font-weight="normal" stroke="black" stroke-width="0" text-anchor="middle" x="100.0" y="-20">Dots</text><g><rect fill="#99B898" height="60.0" stroke="#2A363B" stroke-width="1" width="200" x="0" y="0.0" /><circle cx="100.0" cy="30.0" fill="black" r="3" /><circle cx="100.0" cy="42.0" fill="black" r="3" /><circle cx="100.0" cy="18.0" fill="black" r="3" /></g></g><g transform="translate(720,50.0)"><rect fill="white" height="220.0" stroke="#2A363B" stroke-width="1" width="200" x="0" y="0" /><text alignment-baseline="middle" fill="black" font-family="Helvetica" font-size="24px" font-weight="normal" stroke="black" stroke-width="0" text-anchor="middle" x="100.0" y="-20">Dots</text><rect fill="#99B898" height="220.0" stroke="#2A363B" stroke-width="1" width="200" x="0" y="0.0" /><text alignment-baseline="middle" fill="black" font-family="Helvetica" font-size="16" font-weight="normal" stroke="black" stroke-width="0" text-anchor="middle" x="100.0" y="110.0">External Device</text></g><g transform="translate(940,330.0)"><rect fill="white" height="220.0" stroke="#2A363B" stroke-width="0" width="200" x="0" y="0" /><text alignment-baseline="middle" fill="black" font-family="Helvetica" font-size="24px" font-weight="normal" stroke="black" stroke-width="0" text-anchor="middle" x="100.0" y="-20">Wave break</text><rect fill="#99B898" height="110.0" stroke="#2A363B" stroke-width="0" width="200" x="0" y="110.0" /><text alignment-baseline="middle" fill="black" font-family="Helvetica" font-size="16" font-weight="normal" stroke="black" stroke-width="0" text-anchor="middle" x="100.0" y="165.0">SRAM Area</text><rect fill="#99B898" height="110.0" stroke="#2A363B" stroke-width="0" width="200" x="0" y="0.0" /><text alignment-baseline="middle" fill="black" font-family="Helvetica" font-size="16" font-weight="normal" stroke="black" stroke-width="0" text-anchor="middle" x="100.0" y="55.0">Peripheral</text></g><g transform="translate(940,270.0)"><rect fill="white" height="60" stroke="#2A363B" stroke-width="0" width="200" x="0" y="0" /><text alignment-baseline="middle" fill="black" font-family="Helvetica" font-size="24px" font-weight="normal" stroke="black" stroke-width="0" text-anchor="middle" x="100.0" y="-20">Wave break</text><g><polyline fill="#99B898" points="0,27.0 1,26.998264140047837 2,26.99305957340112 3,26.984395334458657 4,26.97228646312585 5,26.956753978707507 6,26.93782484342129 7,26.915531915595068 8,26.889913892629476 9,26.861015243824628 10,26.82888613318766 11,26.793582332355026 12,26.755165123780746 13,26.71370119435866 14,26.669262519663313 15,26.621926239010435 16,26.571774521553895 17,26.51889442365156 18,26.463377737747642 19,26.40532083303388 20,26.344824488166115 21,26.28199371632665 22,26.21693758293609 23,26.149769016331028 24,26.08060461173628 25,26.009564428871894 26,25.936771783546302 27,25.862353033597334 28,25.786437359552714 29,25.709156540390765 30,25.63064472479054 31,25.5510381982685 32,25.470475146605978 33,25.389095415977973 34,25.307040270199803 35,25.224452145512892 36,25.141474403335405 37,25.058251081406915 38,24.974926643759037 39,24.891645729946127 40,24.808552903971247 41,24.725792403343323 42,24.643507888701016 43,24.561842194437972 44,24.480937080762335 45,24.400932987620852 46,24.32196879091482 47,24.24418156143096 48,24.167706326905716 49,24.092675837636037 50,24.019220336043432 51,23.94746733059139 52,23.877541374448516 53,23.809563849281698 54,23.74365275455452 55,23.679922502696723 56,23.618483720500247 57,23.559443057086618 58,23.502902998779 59,23.448961691200306 60,23.397712768906132 61,23.349245192848276 62,23.303643095950996 63,23.260985637068032 64,23.221346863573917 65,23.184795582828116 66,23.151395242735074 67,23.121203821607544 68,23.094273727524367 69,23.070651707357367 70,23.05037876562534 71,23.03349009331595 72,23.02001500679911 73,23.00997689693785 74,23.003393188485074 75,23.000275309836628 76,23.000628673193187 77,23.004452665165452 78,23.011740647838906 79,23.022479970296292 80,23.03665199057784 81,23.054232108041106 82,23.07518980606423 83,23.099488705018523 84,23.127086625418407 85,23.1579356611391 86,23.191982262574932 87,23.22916732959396 88,23.26942631412753 89,23.31268933221667 90,23.35888128532088 91,23.407921990678645 92,23.45972632049351 93,23.514204349704002 94,23.571261512080945 95,23.63079876438118 96,23.692712758272776 97,23.756896019733265 98,23.82323713560947 99,23.891620947015166 100,23.961928749230758 101,24.034038497758047 102,24.107825020172413 103,24.183160233404585 104,24.259913366074922 105,24.337951185494227 106,24.417138228937006 107,24.49733703878582 108,24.57840840113844 109,24.660211587463696 110,24.74260459888648 111,24.825444412677932 112,24.90858723052284 113,24.991888728133397 114,25.07520430577595 115,25.15838933927588 116,25.24129943106491 117,25.323790660835073 118,25.40571983536421 119,25.486944737079337 120,25.567324370926453 121,25.646719209118192 122,25.724991433334523 123,25.802005173956072 124,25.87762674591472 125,25.951724880752188 126,26.024170954483683 127,26.09483921087112 128,26.16360697971834 129,26.230354889809416 130,26.294967076120322 131,26.35733138094442 132,26.417339548582518 133,26.47488741325962 134,26.52987507994209 135,26.582207097741477 136,26.631792625603865 137,26.67854558999723 138,26.72238483432304 139,26.763234259792736 140,26.801022957524573 141,26.835685331631517 142,26.867161213086504 143,26.895395964167463 144,26.92034057330073 145,26.941951740138293 146,26.96019195072111 147,26.975029542598122 148,26.986438759787795 149,26.994399797486928 150,26.998898836448998 151,26.99992806697245 152,26.99748570245724 153,26.991575982506113 154,26.982209165565262 155,26.969401511117095 156,26.953175251456045 157,26.93355855309644 158,26.91058546787935 159,26.884295873863383 160,26.854735406101952 161,26.821955377427205 162,26.786012689378154 163,26.746969733427555 164,26.704894282679057 165,26.659859374222584 166,26.611943182352174 167,26.561228882866356 168,26.507804508686608 169,26.45176279704454 170,26.393201028503043 171,26.332220858090853 172,26.268928138843666 173,26.203432738058087 174,26.13584834657739 175,26.066292281440138 176,25.994885282234232 177,25.9217513015099 178,25.847017289615422 179,25.77081297432911 180,25.69327063567005 181,25.614524876278523 182,25.534712387764653 183,25.45397171343094 184,25.37244300778046 185,25.29026779322832 186,25.207588714438504 187,25.12454929071278 188,25.041293666861232 189,24.957966362987104 190,24.87471202362011 191,24.7916751666338 192,24.708999932382774 193,24.6268298334952 194,24.545307505755 195,24.464574460506118 196,24.384770839008606 197,24.306035169173057 198,24.228504125095558 199,24.15231228981056 200,24.077591921673623 200,24.0 200,0.0 0,0.0 0,27.0" stroke="#2A363B" stroke-width="0" /><polyline fill="#99B898" points="0,37.0 1,36.99826414004784 2,36.99305957340112 3,36.98439533445866 4,36.97228646312585 5,36.95675397870751 6,36.93782484342129 7,36.91553191559507 8,36.88991389262947 9,36.86101524382463 10,36.82888613318766 11,36.79358233235502 12,36.75516512378074 13,36.71370119435866 14,36.66926251966331 15,36.621926239010435 16,36.5717745215539 17,36.51889442365156 18,36.46337773774764 19,36.40532083303388 20,36.34482448816611 21,36.28199371632665 22,36.21693758293609 23,36.14976901633103 24,36.08060461173628 25,36.0095644288719 26,35.9367717835463 27,35.86235303359733 28,35.786437359552714 29,35.709156540390765 30,35.630644724790535 31,35.5510381982685 32,35.47047514660598 33,35.38909541597798 34,35.307040270199806 35,35.22445214551289 36,35.14147440333541 37,35.058251081406915 38,34.97492664375904 39,34.89164572994613 40,34.80855290397125 41,34.72579240334333 42,34.643507888701016 43,34.56184219443797 44,34.48093708076233 45,34.40093298762085 46,34.32196879091482 47,34.244181561430956 48,34.167706326905716 49,34.09267583763604 50,34.01922033604343 51,33.94746733059139 52,33.87754137444852 53,33.8095638492817 54,33.743652754554525 55,33.679922502696726 56,33.618483720500244 57,33.55944305708662 58,33.502902998779 59,33.44896169120031 60,33.39771276890613 61,33.34924519284828 62,33.303643095950996 63,33.26098563706803 64,33.22134686357392 65,33.184795582828116 66,33.15139524273507 67,33.121203821607544 68,33.09427372752437 69,33.07065170735737 70,33.05037876562534 71,33.033490093315955 72,33.020015006799106 73,33.00997689693785 74,33.00339318848508 75,33.000275309836624 76,33.000628673193184 77,33.00445266516545 78,33.011740647838906 79,33.022479970296295 80,33.036651990577845 81,33.054232108041106 82,33.07518980606423 83,33.09948870501852 84,33.12708662541841 85,33.1579356611391 86,33.19198226257493 87,33.229167329593956 88,33.26942631412753 89,33.31268933221667 90,33.35888128532088 91,33.407921990678645 92,33.45972632049351 93,33.514204349704 94,33.571261512080945 95,33.630798764381176 96,33.692712758272776 97,33.75689601973326 98,33.82323713560947 99,33.89162094701517 100,33.96192874923076 101,34.03403849775805 102,34.10782502017241 103,34.183160233404585 104,34.259913366074926 105,34.33795118549423 106,34.417138228937006 107,34.497337038785815 108,34.57840840113844 109,34.66021158746369 110,34.74260459888648 111,34.82544441267793 112,34.90858723052284 113,34.9918887281334 114,35.075204305775955 115,35.15838933927588 116,35.24129943106491 117,35.32379066083507 118,35.40571983536421 119,35.486944737079334 120,35.56732437092645 121,35.64671920911819 122,35.72499143333452 123,35.802005173956076 124,35.877626745914725 125,35.95172488075219 126,36.02417095448368 127,36.094839210871115 128,36.16360697971834 129,36.23035488980942 130,36.29496707612032 131,36.357331380944416 132,36.41733954858252 133,36.47488741325962 134,36.52987507994209 135,36.582207097741474 136,36.631792625603865 137,36.678545589997235 138,36.722384834323044 139,36.76323425979274 140,36.80102295752457 141,36.83568533163152 142,36.867161213086504 143,36.89539596416746 144,36.920340573300734 145,36.94195174013829 146,36.96019195072111 147,36.97502954259812 148,36.986438759787795 149,36.99439979748693 150,36.998898836449 151,36.99992806697245 152,36.99748570245724 153,36.99157598250611 154,36.98220916556526 155,36.96940151111709 156,36.953175251456045 157,36.93355855309644 158,36.91058546787935 159,36.88429587386339 160,36.85473540610195 161,36.8219553774272 162,36.786012689378154 163,36.746969733427555 164,36.70489428267906 165,36.659859374222584 166,36.61194318235217 167,36.56122888286636 168,36.50780450868661 169,36.451762797044545 170,36.39320102850304 171,36.33222085809086 172,36.26892813884366 173,36.20343273805809 174,36.13584834657739 175,36.066292281440134 176,35.994885282234236 177,35.9217513015099 178,35.84701728961542 179,35.77081297432911 180,35.69327063567005 181,35.61452487627852 182,35.53471238776466 183,35.45397171343094 184,35.37244300778046 185,35.29026779322832 186,35.20758871443851 187,35.12454929071278 188,35.041293666861236 189,34.9579663629871 190,34.874712023620106 191,34.7916751666338 192,34.708999932382774 193,34.6268298334952 194,34.545307505755005 195,34.464574460506114 196,34.3847708390086 197,34.30603516917306 198,34.228504125095554 199,34.15231228981056 200,34.07759192167362 200,36.0 200,60.0 0,60.0 0,37.0" stroke="#2A363B" stroke-width="0" /></g></g><g transform="translate(940,50.0)"><rect fill="white" height="220.0" stroke="#2A363B" stroke-width="0" width="200" x="0" y="0" /><text alignment-baseline="middle" fill="black" font-family="Helvetica" font-size="24px" font-weight="normal" stroke="black" stroke-width="0" text-anchor="middle" x="100.0" y="-20">Wave break</text><rect fill="#99B898" height="220.0" stroke="#2A363B" stroke-width="0" width="200" x="0" y="0.0" /><text alignment-baseline="middle" fill="black" font-family="Helvetica" font-size="16" font-weight="normal" stroke="black" stroke-width="0" text-anchor="middle" x="100.0" y="110.0">External Device</text></g><g><g transform="translate(30,330.0)" /><g transform="translate(30,270.0)" /><g transform="translate(30,50.0)" /><g transform="translate(260,330.0)" /><g transform="translate(260,270.0)" /><g transform="translate(260,50.0)" /><g transform="translate(490,330.0)" /><g transform="translate(490,270.0)" /><g transform="translate(490,50.0)" /><g transform="translate(720,330.0)" /><g transform="translate(720,270.0)" /><g transform="translate(720,50.0)" /><g transform="translate(940,330.0)" /><g transform="translate(940,270.0)" /><g transform="translate(940,50.0)" /></g><g><g transform="translate(30,330.0)"><g /><g /></g><g transform="translate(30,270.0)"><g /></g><g transform="translate(30,50.0)"><g /></g><g transform="translate(260,330.0)"><g /><g /></g><g transform="translate(260,270.0)"><g /></g><g transform="translate(260,50.0)"><g /></g><g transform="translate(490,330.0)"><g /><g /></g><g transform="translate(490,270.0)"><g /></g><g transform="translate(490,50.0)"><g /></g><g transform="translate(720,330.0)"><g /><g /></g><g transform="translate(720,270.0)"><g /></g><g transform="translate(720,50.0)"><g /></g><g transform="translate(940,330.0)"><g /><g /></g><g transform="translate(940,270.0)"><g /></g><g transform="translate(940,50.0)"><g /></g></g></svg>