<?xml version="1.0" encoding="utf-8" ?>
<svg baseProfile="full" height="300" version="1.1" width="800" xmlns="http://www.w3.org/2000/svg" xmlns:ev="http://www.w3.org/2001/xml-events" xmlns:xlink="http://www.w3.org/1999/xlink"><defs /><rect fill="#2A363B" height="100%" width="100%" x="0" y="0" /><g /><g /><g transform="translate(200,50)"><rect fill="#2A363B" height="200" stroke="grey" stroke-width="1" width="200" x="0" y="0" /><text alignment-baseline="middle" fill="lightgrey" font-family="Helvetica" font-size="24px" font-weight="normal" stroke="black" stroke-width="0" text-anchor="middle" x="100.0" y="-20">Address Link Example</text><rect fill="#E84A5F" height="50.0" stroke="grey" stroke-width="1" width="200" x="0" y="150.0" /><text alignment-baseline="middle" fill="lightgrey" font-family="Helvetica" font-size="16" font-weight="normal" stroke="black" stroke-width="0" text-anchor="middle" x="100.0" y="175.0">TPIU</text><text alignment-baseline="middle" fill="lightgrey" font-family="Helvetica" font-size="16" font-weight="normal" stroke="black" stroke-width="0" text-anchor="start" x="210" y="200.0">0xe8040000</text><rect fill="#FF847C" height="50.0" stroke="grey" stroke-width="1" width="200" x="0" y="100.0" /><text alignment-baseline="middle" fill="lightgrey" font-family="Helvetica" font-size="16" font-weight="normal" stroke="black" stroke-width="0" text-anchor="middle" x="100.0" y="125.0">ETM</text><text alignment-baseline="middle" fill="lightgrey" font-family="Helvetica" font-size="16" font-weight="normal" stroke="black" stroke-width="0" text-anchor="start" x="210" y="150.0">0xe8041000</text><rect fill="#FECEA8" height="50.0" stroke="grey" stroke-width="1" width="200" x="0" y="50.0" /><text alignment-baseline="middle" fill="grey" font-family="Helvetica" font-size="16" font-weight="normal" stroke="black" stroke-width="0" text-anchor="middle" x="100.0" y="75.0">External PPB</text><text alignment-baseline="middle" fill="grey" font-family="Helvetica" font-size="16" font-weight="normal" stroke="black" stroke-width="0" text-anchor="start" x="210" y="100.0">0xe8042000</text><rect fill="#99B898" height="50.0" stroke="grey" stroke-width="1" width="200" x="0" y="0.0" /><text alignment-baseline="middle" fill="lightgrey" font-family="Helvetica" font-size="16" font-weight="normal" stroke="black" stroke-width="0" text-anchor="middle" x="100.0" y="25.0">ROM Table</text><text alignment-baseline="middle" fill="lightgrey" font-family="Helvetica" font-size="16" font-weight="normal" stroke="black" stroke-width="0" text-anchor="start" x="210" y="50.0">0xe8043000</text></g><g><g transform="translate(200,50)"><g><g transform="translate(200,25.0)"><polyline fill="grey" points="0,-10 -5,-10 0,0 5,-10 0,-10" stroke="grey" stroke-width="1" transform="rotate(90,0,0)" /></g><text alignment-baseline="middle" fill="lightgrey" font-family="Helvetica" font-size="16" font-weight="normal" stroke="black" stroke-width="0" text-anchor="start" x="353" y="25.0">In direction</text><polyline points="200,25.0 350,25.0" stroke="grey" stroke-dasharray="5,1,3,1,3" stroke-width="1" /></g><g><text alignment-baseline="middle" fill="lightgrey" font-family="Helvetica" font-size="16" font-weight="normal" stroke="black" stroke-width="0" text-anchor="start" x="353" y="75.0">No direction</text><polyline points="200,75.0 350,75.0" stroke="grey" stroke-dasharray="2,2" stroke-width="1" /></g><g><g transform="translate(350,125.0)"><polyline fill="grey" points="0,-10 -5,-10 0,0 5,-10 0,-10" stroke="grey" stroke-width="1" transform="rotate(270,0,0)" /></g><text alignment-baseline="middle" fill="lightgrey" font-family="Helvetica" font-size="16" font-weight="normal" stroke="black" stroke-width="0" text-anchor="start" x="353" y="125.0">Out direction</text><polyline points="200,125.0 350,125.0" stroke="grey" stroke-dasharray="1" stroke-width="1" /></g><g><g transform="translate(-40,125.0)"><polyline fill="grey" points="0,-10 -5,-10 0,0 5,-10 0,-10" stroke="grey" stroke-width="1" transform="rotate(90,0,0)" /></g><text alignment-baseline="middle" fill="lightgrey" font-family="Helvetica" font-size="16" font-weight="normal" stroke="black" stroke-width="0" text-anchor="end" x="-43" y="125.0">Label at left side</text><polyline points="0,125.0 -40,125.0" stroke="grey" stroke-dasharray="1" stroke-width="1" /></g><g><g transform="translate(200,175.0)"><polyline fill="grey" points="0,-10 -5,-10 0,0 5,-10 0,-10" stroke="grey" stroke-width="1" transform="rotate(90,0,0)" /></g><g transform="translate(350,175.0)"><polyline fill="grey" points="0,-10 -5,-10 0,0 5,-10 0,-10" stroke="grey" stroke-width="1" transform="rotate(270,0,0)" /></g><text alignment-baseline="middle" fill="lightgrey" font-family="Helvetica" font-size="16" font-weight="normal" stroke="black" stroke-width="0" text-anchor="start" x="353" y="175.0">In and Out directions</text><polyline points="200,175.0 350,175.0" stroke="grey" stroke-dasharray="1" stroke-width="1" /></g></g></g><g><g transform="translate(200,50)"><g /><g /><g /><g /></g></g></svg>