<?xml version="1.0" encoding="utf-8" ?>
<svg baseProfile="full" height="1300" version="1.1" width="900" xmlns="http://www.w3.org/2000/svg" xmlns:ev="http://www.w3.org/2001/xml-events" xmlns:xlink="http://www.w3.org/1999/xlink"><defs /><rect fill="white" height="100%" width="100%" x="0" y="0" /><g /><g /><g transform="translate(50,50)"><rect fill="grey" height="500" stroke="black" stroke-width="1" width="200" x="0" y="0" /><text alignment-baseline="middle" fill="black" font-family="Helvetica" font-size="24px" font-weight="normal" stroke="black" stroke-width="0" text-anchor="middle" x="100.0" y="-20">Full Memory Map</text><rect fill="lightgrey" height="55.55555555555556" stroke="black" stroke-width="1" width="200" x="0" y="444.44444444444446" /><text alignment-baseline="middle" fill="black" font-family="Helvetica" font-size="16" font-weight="normal" stroke="black" stroke-width="0" text-anchor="middle" x="100.0" y="472.22222222222223">Text</text><rect fill="lightgrey" height="55.55555555555556" stroke="black" stroke-width="1" width="200" x="0" y="388.8888888888889" /><text alignment-baseline="middle" fill="black" font-family="Helvetica" font-size="16" font-weight="normal" stroke="black" stroke-width="0" text-anchor="middle" x="100.0" y="416.6666666666667">Initialized data</text><rect fill="lightgrey" height="55.55555555555556" stroke="black" stroke-width="1" width="200" x="0" y="333.33333333333337" /><text alignment-baseline="middle" fill="black" font-family="Helvetica" font-size="16" font-weight="normal" stroke="black" stroke-width="0" text-anchor="middle" x="100.0" y="361.11111111111114">Uninitialized data</text><rect fill="lightgrey" height="55.55555555555556" stroke="black" stroke-width="1" width="200" x="0" y="277.77777777777777" /><text alignment-baseline="middle" fill="black" font-family="Helvetica" font-size="16" font-weight="normal" stroke="black" stroke-width="0" text-anchor="middle" x="100.0" y="305.55555555555554">Heap</text><rect fill="lightgrey" height="55.55555555555556" stroke="black" stroke-width="1" width="200" x="0" y="0.0" /><text alignment-baseline="middle" fill="black" font-family="Helvetica" font-size="16" font-weight="normal" stroke="black" stroke-width="0" text-anchor="middle" x="100.0" y="27.77777777777778">Stack</text></g><g><g transform="translate(50,50)" /></g><g><g transform="translate(50,50)"><g /><g /><g /><g><polyline fill="white" points="98.0,277.77777777777777 98.0,257.77777777777777 90.0,257.77777777777777 100.0,237.77777777777777 110.0,257.77777777777777 102.0,257.77777777777777 102.0,277.77777777777777" stroke="black" stroke-width="1" /></g><g><polyline fill="white" points="98.0,55.55555555555556 98.0,75.55555555555556 90.0,75.55555555555556 100.0,95.55555555555556 110.0,75.55555555555556 102.0,75.55555555555556 102.0,55.55555555555556" stroke="black" stroke-width="1" /></g></g></g></svg>