<?xml version="1.0" encoding="utf-8" ?>
<svg baseProfile="full" height="650" version="1.1" width="750" xmlns="http://www.w3.org/2000/svg" xmlns:ev="http://www.w3.org/2001/xml-events" xmlns:xlink="http://www.w3.org/1999/xlink"><defs /><rect fill="#2A363B" height="100%" width="100%" x="0" y="0" /><g><polyline fill="gray" opacity="1" points="250,475.9259259259259 280,475.9259259259259 370,630.0 400,630.0 400,330.0 370,330.0 280,468.98148148148147 250,468.98148148148147" stroke="lightgray" stroke-width="1" /><polyline fill="gray" opacity="1" points="250,87.00086805555554 280,87.00086805555554 370,250.0 400,250.0 400,83.33333333333336 370,83.33333333333336 280,86.99917263454859 250,86.99917263454859" stroke="lightgray" stroke-width="1" /></g><g><g id="hlines" stroke="grey"><line stroke="lightgray" stroke-width="1" x1="250" x2="280" y1="87.00086805555554" y2="87.00086805555554" /><line stroke="lightgray" stroke-width="1" x1="280" x2="370" y1="87.00086805555554" y2="250.0" /><line stroke="lightgray" stroke-width="1" x1="370" x2="400" y1="250.0" y2="250.0" /></g></g><g><text alignment-baseline="middle" fill="lightgrey" font-family="Helvetica" font-size="24px" font-weight="normal" stroke="black" stroke-width="0" text-anchor="middle" transform="translate(50,50)" x="100.0" y="-20">Full Memory Map</text><g transform="translate(50,50)"><rect fill="#2A363B" height="500" stroke="#2A363B" stroke-width="1" width="200" x="0" y="0" /><rect fill="#99B898" height="74.07407407407408" stroke="#2A363B" stroke-width="1" width="200" x="0" y="425.9259259259259" /><text alignment-baseline="middle" fill="lightgrey" font-family="Helvetica" font-size="16" font-weight="normal" stroke="black" stroke-width="0" text-anchor="middle" x="100.0" y="462.96296296296293">SRAM Area</text><rect fill="#99B898" height="74.07407407407408" stroke="#2A363B" stroke-width="1" width="200" x="0" y="351.85185185185185" /><text alignment-baseline="middle" fill="lightgrey" font-family="Helvetica" font-size="16" font-weight="normal" stroke="black" stroke-width="0" text-anchor="middle" x="100.0" y="388.8888888888889">Peripheral</text><rect fill="#99B898" height="148.14814814814815" stroke="#2A363B" stroke-width="1" width="200" x="0" y="203.7037037037037" /><text alignment-baseline="middle" fill="lightgrey" font-family="Helvetica" font-size="16" font-weight="normal" stroke="black" stroke-width="0" text-anchor="middle" x="100.0" y="277.77777777777777">External RAM</text><rect fill="#99B898" height="148.14814814814815" stroke="#2A363B" stroke-width="1" width="200" x="0" y="55.55555555555556" /><text alignment-baseline="middle" fill="lightgrey" font-family="Helvetica" font-size="16" font-weight="normal" stroke="black" stroke-width="0" text-anchor="middle" x="100.0" y="129.62962962962962">External Device</text><rect fill="#99B898" height="18.51851851851852" stroke="#2A363B" stroke-width="1" width="200" x="0" y="37.03703703703704" /><rect fill="#99B898" height="18.51851851851852" stroke="#2A363B" stroke-width="1" width="200" x="0" y="18.51851851851852" /><rect fill="#99B898" height="18.51851851851852" stroke="#2A363B" stroke-width="1" width="200" x="0" y="0.0" /></g></g><g><text alignment-baseline="middle" fill="lightgrey" font-family="Helvetica" font-size="24px" font-weight="normal" stroke="black" stroke-width="0" text-anchor="middle" transform="translate(400,50)" x="100.0" y="-20">Address Link Example</text><g transform="translate(400,216.66666666666669)"><rect fill="#2A363B" height="33.33333333333333" stroke="#2A363B" stroke-width="1" width="200" x="0" y="0" /><rect fill="#E84A5F" height="33.33333333333333" stroke="#2A363B" stroke-width="1" width="200" x="0" y="0.0" /><text alignment-baseline="middle" fill="lightgrey" font-family="Helvetica" font-size="16" font-weight="normal" stroke="black" stroke-width="0" text-anchor="middle" x="100.0" y="16.666666666666664">TPIU</text><text alignment-baseline="middle" fill="lightgrey" font-family="Helvetica" font-size="16" font-weight="normal" stroke="black" stroke-width="0" text-anchor="start" x="210" y="33.33333333333333">0xe8040000</text></g><g transform="translate(400,116.66666666666669)"><rect fill="#2A363B" height="100" stroke="#2A363B" stroke-width="1" width="200" x="0" y="0" /><g><polyline fill="#FF847C" points="0,47.0 1,46.99826414004784 2,46.99305957340112 3,46.98439533445866 4,46.97228646312585 5,46.95675397870751 6,46.93782484342129 7,46.91553191559507 8,46.88991389262947 9,46.86101524382463 10,46.82888613318766 11,46.79358233235502 12,46.75516512378074 13,46.71370119435866 14,46.66926251966331 15,46.621926239010435 16,46.5717745215539 17,46.51889442365156 18,46.46337773774764 19,46.40532083303388 20,46.34482448816611 21,46.28199371632665 22,46.21693758293609 23,46.14976901633103 24,46.08060461173628 25,46.0095644288719 26,45.9367717835463 27,45.86235303359733 28,45.786437359552714 29,45.709156540390765 30,45.630644724790535 31,45.5510381982685 32,45.47047514660598 33,45.38909541597798 34,45.307040270199806 35,45.22445214551289 36,45.14147440333541 37,45.058251081406915 38,44.97492664375904 39,44.89164572994613 40,44.80855290397125 41,44.72579240334333 42,44.643507888701016 43,44.56184219443797 44,44.48093708076233 45,44.40093298762085 46,44.32196879091482 47,44.244181561430956 48,44.167706326905716 49,44.09267583763604 50,44.01922033604343 51,43.94746733059139 52,43.87754137444852 53,43.8095638492817 54,43.743652754554525 55,43.679922502696726 56,43.61848372050025 57,43.55944305708662 58,43.502902998779 59,43.44896169120031 60,43.39771276890613 61,43.34924519284828 62,43.303643095950996 63,43.26098563706803 64,43.22134686357392 65,43.184795582828116 66,43.15139524273507 67,43.121203821607544 68,43.09427372752437 69,43.07065170735737 70,43.05037876562534 71,43.033490093315955 72,43.020015006799106 73,43.00997689693785 74,43.00339318848508 75,43.000275309836624 76,43.000628673193184 77,43.00445266516545 78,43.011740647838906 79,43.022479970296295 80,43.036651990577845 81,43.054232108041106 82,43.07518980606423 83,43.09948870501852 84,43.12708662541841 85,43.1579356611391 86,43.19198226257493 87,43.229167329593956 88,43.26942631412753 89,43.31268933221667 90,43.35888128532088 91,43.407921990678645 92,43.45972632049351 93,43.514204349704 94,43.571261512080945 95,43.630798764381176 96,43.692712758272776 97,43.75689601973326 98,43.82323713560947 99,43.89162094701517 100,43.96192874923076 101,44.03403849775805 102,44.10782502017241 103,44.183160233404585 104,44.259913366074926 105,44.33795118549423 106,44.417138228937006 107,44.497337038785815 108,44.57840840113844 109,44.66021158746369 110,44.74260459888648 111,44.82544441267793 112,44.90858723052284 113,44.9918887281334 114,45.075204305775955 115,45.15838933927588 116,45.24129943106491 117,45.32379066083507 118,45.40571983536421 119,45.486944737079334 120,45.56732437092645 121,45.64671920911819 122,45.72499143333452 123,45.802005173956076 124,45.877626745914725 125,45.95172488075219 126,46.02417095448368 127,46.094839210871115 128,46.16360697971834 129,46.23035488980942 130,46.29496707612032 131,46.357331380944416 132,46.41733954858252 133,46.47488741325962 134,46.52987507994209 135,46.582207097741474 136,46.631792625603865 137,46.678545589997235 138,46.722384834323044 139,46.76323425979274 140,46.80102295752457 141,46.83568533163152 142,46.867161213086504 143,46.89539596416746 144,46.920340573300734 145,46.94195174013829 146,46.96019195072111 147,46.97502954259812 148,46.986438759787795 149,46.99439979748693 150,46.998898836449 151,46.99992806697245 152,46.99748570245724 153,46.99157598250611 154,46.98220916556526 155,46.96940151111709 156,46.953175251456045 157,46.93355855309644 158,46.91058546787935 159,46.88429587386339 160,46.85473540610195 161,46.8219553774272 162,46.786012689378154 163,46.746969733427555 164,46.70489428267906 165,46.659859374222584 166,46.61194318235217 167,46.56122888286636 168,46.50780450868661 169,46.45176279704454 170,46.39320102850304 171,46.33222085809086 172,46.26892813884366 173,46.20343273805809 174,46.13584834657739 175,46.066292281440134 176,45.994885282234236 177,45.9217513015099 178,45.84701728961542 179,45.77081297432911 180,45.69327063567005 181,45.61452487627852 182,45.53471238776466 183,45.45397171343094 184,45.37244300778046 185,45.29026779322832 186,45.20758871443851 187,45.12454929071278 188,45.041293666861236 189,44.9579663629871 190,44.874712023620106 191,44.7916751666338 192,44.708999932382774 193,44.6268298334952 194,44.545307505755005 195,44.464574460506114 196,44.3847708390086 197,44.30603516917306 198,44.228504125095554 199,44.15231228981056 200,44.07759192167362 200,40.0 200,0.0 0,0.0 0,47.0" stroke="#2A363B" stroke-width="1" /><polyline fill="#FF847C" points="0,57.0 1,56.99826414004784 2,56.99305957340112 3,56.98439533445866 4,56.97228646312585 5,56.95675397870751 6,56.93782484342129 7,56.91553191559507 8,56.88991389262947 9,56.86101524382463 10,56.82888613318766 11,56.79358233235502 12,56.75516512378074 13,56.71370119435866 14,56.66926251966331 15,56.621926239010435 16,56.5717745215539 17,56.51889442365156 18,56.46337773774764 19,56.40532083303388 20,56.34482448816611 21,56.28199371632665 22,56.21693758293609 23,56.14976901633103 24,56.08060461173628 25,56.0095644288719 26,55.9367717835463 27,55.86235303359733 28,55.786437359552714 29,55.709156540390765 30,55.630644724790535 31,55.5510381982685 32,55.47047514660598 33,55.38909541597798 34,55.307040270199806 35,55.22445214551289 36,55.14147440333541 37,55.058251081406915 38,54.97492664375904 39,54.89164572994613 40,54.80855290397125 41,54.72579240334333 42,54.643507888701016 43,54.56184219443797 44,54.48093708076233 45,54.40093298762085 46,54.32196879091482 47,54.244181561430956 48,54.167706326905716 49,54.09267583763604 50,54.01922033604343 51,53.94746733059139 52,53.87754137444852 53,53.8095638492817 54,53.743652754554525 55,53.679922502696726 56,53.61848372050025 57,53.55944305708662 58,53.502902998779 59,53.44896169120031 60,53.39771276890613 61,53.34924519284828 62,53.303643095950996 63,53.26098563706803 64,53.22134686357392 65,53.184795582828116 66,53.15139524273507 67,53.121203821607544 68,53.09427372752437 69,53.07065170735737 70,53.05037876562534 71,53.033490093315955 72,53.020015006799106 73,53.00997689693785 74,53.00339318848508 75,53.000275309836624 76,53.000628673193184 77,53.00445266516545 78,53.011740647838906 79,53.022479970296295 80,53.036651990577845 81,53.054232108041106 82,53.07518980606423 83,53.09948870501852 84,53.12708662541841 85,53.1579356611391 86,53.19198226257493 87,53.229167329593956 88,53.26942631412753 89,53.31268933221667 90,53.35888128532088 91,53.407921990678645 92,53.45972632049351 93,53.514204349704 94,53.571261512080945 95,53.630798764381176 96,53.692712758272776 97,53.75689601973326 98,53.82323713560947 99,53.89162094701517 100,53.96192874923076 101,54.03403849775805 102,54.10782502017241 103,54.183160233404585 104,54.259913366074926 105,54.33795118549423 106,54.417138228937006 107,54.497337038785815 108,54.57840840113844 109,54.66021158746369 110,54.74260459888648 111,54.82544441267793 112,54.90858723052284 113,54.9918887281334 114,55.075204305775955 115,55.15838933927588 116,55.24129943106491 117,55.32379066083507 118,55.40571983536421 119,55.486944737079334 120,55.56732437092645 121,55.64671920911819 122,55.72499143333452 123,55.802005173956076 124,55.877626745914725 125,55.95172488075219 126,56.02417095448368 127,56.094839210871115 128,56.16360697971834 129,56.23035488980942 130,56.29496707612032 131,56.357331380944416 132,56.41733954858252 133,56.47488741325962 134,56.52987507994209 135,56.582207097741474 136,56.631792625603865 137,56.678545589997235 138,56.722384834323044 139,56.76323425979274 140,56.80102295752457 141,56.83568533163152 142,56.867161213086504 143,56.89539596416746 144,56.920340573300734 145,56.94195174013829 146,56.96019195072111 147,56.97502954259812 148,56.986438759787795 149,56.99439979748693 150,56.998898836449 151,56.99992806697245 152,56.99748570245724 153,56.99157598250611 154,56.98220916556526 155,56.96940151111709 156,56.953175251456045 157,56.93355855309644 158,56.91058546787935 159,56.88429587386339 160,56.85473540610195 161,56.8219553774272 162,56.786012689378154 163,56.746969733427555 164,56.70489428267906 165,56.659859374222584 166,56.61194318235217 167,56.56122888286636 168,56.50780450868661 169,56.45176279704454 170,56.39320102850304 171,56.33222085809086 172,56.26892813884366 173,56.20343273805809 174,56.13584834657739 175,56.066292281440134 176,55.994885282234236 177,55.9217513015099 178,55.84701728961542 179,55.77081297432911 180,55.69327063567005 181,55.61452487627852 182,55.53471238776466 183,55.45397171343094 184,55.37244300778046 185,55.29026779322832 186,55.20758871443851 187,55.12454929071278 188,55.041293666861236 189,54.9579663629871 190,54.874712023620106 191,54.7916751666338 192,54.708999932382774 193,54.6268298334952 194,54.545307505755005 195,54.464574460506114 196,54.3847708390086 197,54.30603516917306 198,54.228504125095554 199,54.15231228981056 200,54.07759192167362 200,60.0 200,100.0 0,100.0 0,57.0" stroke="#2A363B" stroke-width="1" /></g></g><g transform="translate(400,50.00000000000003)"><rect fill="#2A363B" height="66.66666666666666" stroke="#2A363B" stroke-width="1" width="200" x="0" y="0" /><rect fill="#FECEA8" height="33.33333333333333" stroke="#2A363B" stroke-width="1" width="200" x="0" y="33.33333333333333" /><text alignment-baseline="middle" fill="lightgrey" font-family="Helvetica" font-size="16" font-weight="normal" stroke="black" stroke-width="0" text-anchor="middle" x="100.0" y="49.99999999999999">External PPB</text><text alignment-baseline="middle" fill="lightgrey" font-family="Helvetica" font-size="16" font-weight="normal" stroke="black" stroke-width="0" text-anchor="start" x="210" y="66.66666666666666">0xe8042000</text><rect fill="#99B898" height="33.33333333333333" stroke="#2A363B" stroke-width="1" width="200" x="0" y="0.0" /><text alignment-baseline="middle" fill="lightgrey" font-family="Helvetica" font-size="16" font-weight="normal" stroke="black" stroke-width="0" text-anchor="middle" x="100.0" y="16.666666666666664">ROM Table</text><text alignment-baseline="middle" fill="lightgrey" font-family="Helvetica" font-size="16" font-weight="normal" stroke="black" stroke-width="0" text-anchor="start" x="210" y="33.33333333333333">0xe8043000</text></g></g><g><text alignment-baseline="middle" fill="lightgrey" font-family="Helvetica" font-size="24px" font-weight="normal" stroke="black" stroke-width="0" text-anchor="middle" transform="translate(400,330)" x="100.0" y="-20">None</text><g transform="translate(400,618.2352941176471)"><rect fill="#2A363B" height="11.76470588235294" stroke="#2A363B" stroke-width="1" width="200" x="0" y="0" /><rect fill="#FF847C" height="11.76470588235294" stroke="#2A363B" stroke-width="1" width="200" x="0" y="0.0" /></g><g transform="translate(400,518.2352941176471)"><rect fill="#2A363B" height="100" stroke="#2A363B" stroke-width="1" width="200" x="0" y="0" /><g><polyline fill="#FECEA8" points="0,47.0 1,46.99826414004784 2,46.99305957340112 3,46.98439533445866 4,46.97228646312585 5,46.95675397870751 6,46.93782484342129 7,46.91553191559507 8,46.88991389262947 9,46.86101524382463 10,46.82888613318766 11,46.79358233235502 12,46.75516512378074 13,46.71370119435866 14,46.66926251966331 15,46.621926239010435 16,46.5717745215539 17,46.51889442365156 18,46.46337773774764 19,46.40532083303388 20,46.34482448816611 21,46.28199371632665 22,46.21693758293609 23,46.14976901633103 24,46.08060461173628 25,46.0095644288719 26,45.9367717835463 27,45.86235303359733 28,45.786437359552714 29,45.709156540390765 30,45.630644724790535 31,45.5510381982685 32,45.47047514660598 33,45.38909541597798 34,45.307040270199806 35,45.22445214551289 36,45.14147440333541 37,45.058251081406915 38,44.97492664375904 39,44.89164572994613 40,44.80855290397125 41,44.72579240334333 42,44.643507888701016 43,44.56184219443797 44,44.48093708076233 45,44.40093298762085 46,44.32196879091482 47,44.244181561430956 48,44.167706326905716 49,44.09267583763604 50,44.01922033604343 51,43.94746733059139 52,43.87754137444852 53,43.8095638492817 54,43.743652754554525 55,43.679922502696726 56,43.61848372050025 57,43.55944305708662 58,43.502902998779 59,43.44896169120031 60,43.39771276890613 61,43.34924519284828 62,43.303643095950996 63,43.26098563706803 64,43.22134686357392 65,43.184795582828116 66,43.15139524273507 67,43.121203821607544 68,43.09427372752437 69,43.07065170735737 70,43.05037876562534 71,43.033490093315955 72,43.020015006799106 73,43.00997689693785 74,43.00339318848508 75,43.000275309836624 76,43.000628673193184 77,43.00445266516545 78,43.011740647838906 79,43.022479970296295 80,43.036651990577845 81,43.054232108041106 82,43.07518980606423 83,43.09948870501852 84,43.12708662541841 85,43.1579356611391 86,43.19198226257493 87,43.229167329593956 88,43.26942631412753 89,43.31268933221667 90,43.35888128532088 91,43.407921990678645 92,43.45972632049351 93,43.514204349704 94,43.571261512080945 95,43.630798764381176 96,43.692712758272776 97,43.75689601973326 98,43.82323713560947 99,43.89162094701517 100,43.96192874923076 101,44.03403849775805 102,44.10782502017241 103,44.183160233404585 104,44.259913366074926 105,44.33795118549423 106,44.417138228937006 107,44.497337038785815 108,44.57840840113844 109,44.66021158746369 110,44.74260459888648 111,44.82544441267793 112,44.90858723052284 113,44.9918887281334 114,45.075204305775955 115,45.15838933927588 116,45.24129943106491 117,45.32379066083507 118,45.40571983536421 119,45.486944737079334 120,45.56732437092645 121,45.64671920911819 122,45.72499143333452 123,45.802005173956076 124,45.877626745914725 125,45.95172488075219 126,46.02417095448368 127,46.094839210871115 128,46.16360697971834 129,46.23035488980942 130,46.29496707612032 131,46.357331380944416 132,46.41733954858252 133,46.47488741325962 134,46.52987507994209 135,46.582207097741474 136,46.631792625603865 137,46.678545589997235 138,46.722384834323044 139,46.76323425979274 140,46.80102295752457 141,46.83568533163152 142,46.867161213086504 143,46.89539596416746 144,46.920340573300734 145,46.94195174013829 146,46.96019195072111 147,46.97502954259812 148,46.986438759787795 149,46.99439979748693 150,46.998898836449 151,46.99992806697245 152,46.99748570245724 153,46.99157598250611 154,46.98220916556526 155,46.96940151111709 156,46.953175251456045 157,46.93355855309644 158,46.91058546787935 159,46.88429587386339 160,46.85473540610195 161,46.8219553774272 162,46.786012689378154 163,46.746969733427555 164,46.70489428267906 165,46.659859374222584 166,46.61194318235217 167,46.56122888286636 168,46.50780450868661 169,46.45176279704454 170,46.39320102850304 171,46.33222085809086 172,46.26892813884366 173,46.20343273805809 174,46.13584834657739 175,46.066292281440134 176,45.994885282234236 177,45.9217513015099 178,45.84701728961542 179,45.77081297432911 180,45.69327063567005 181,45.61452487627852 182,45.53471238776466 183,45.45397171343094 184,45.37244300778046 185,45.29026779322832 186,45.20758871443851 187,45.12454929071278 188,45.041293666861236 189,44.9579663629871 190,44.874712023620106 191,44.7916751666338 192,44.708999932382774 193,44.6268298334952 194,44.545307505755005 195,44.464574460506114 196,44.3847708390086 197,44.30603516917306 198,44.228504125095554 199,44.15231228981056 200,44.07759192167362 200,40.0 200,0.0 0,0.0 0,47.0" stroke="#2A363B" stroke-width="1" /><polyline fill="#FECEA8" points="0,57.0 1,56.99826414004784 2,56.99305957340112 3,56.98439533445866 4,56.97228646312585 5,56.95675397870751 6,56.93782484342129 7,56.91553191559507 8,56.88991389262947 9,56.86101524382463 10,56.82888613318766 11,56.79358233235502 12,56.75516512378074 13,56.71370119435866 14,56.66926251966331 15,56.621926239010435 16,56.5717745215539 17,56.51889442365156 18,56.46337773774764 19,56.40532083303388 20,56.34482448816611 21,56.28199371632665 22,56.21693758293609 23,56.14976901633103 24,56.08060461173628 25,56.0095644288719 26,55.9367717835463 27,55.86235303359733 28,55.786437359552714 29,55.709156540390765 30,55.630644724790535 31,55.5510381982685 32,55.47047514660598 33,55.38909541597798 34,55.307040270199806 35,55.22445214551289 36,55.14147440333541 37,55.058251081406915 38,54.97492664375904 39,54.89164572994613 40,54.80855290397125 41,54.72579240334333 42,54.643507888701016 43,54.56184219443797 44,54.48093708076233 45,54.40093298762085 46,54.32196879091482 47,54.244181561430956 48,54.167706326905716 49,54.09267583763604 50,54.01922033604343 51,53.94746733059139 52,53.87754137444852 53,53.8095638492817 54,53.743652754554525 55,53.679922502696726 56,53.61848372050025 57,53.55944305708662 58,53.502902998779 59,53.44896169120031 60,53.39771276890613 61,53.34924519284828 62,53.303643095950996 63,53.26098563706803 64,53.22134686357392 65,53.184795582828116 66,53.15139524273507 67,53.121203821607544 68,53.09427372752437 69,53.07065170735737 70,53.05037876562534 71,53.033490093315955 72,53.020015006799106 73,53.00997689693785 74,53.00339318848508 75,53.000275309836624 76,53.000628673193184 77,53.00445266516545 78,53.011740647838906 79,53.022479970296295 80,53.036651990577845 81,53.054232108041106 82,53.07518980606423 83,53.09948870501852 84,53.12708662541841 85,53.1579356611391 86,53.19198226257493 87,53.229167329593956 88,53.26942631412753 89,53.31268933221667 90,53.35888128532088 91,53.407921990678645 92,53.45972632049351 93,53.514204349704 94,53.571261512080945 95,53.630798764381176 96,53.692712758272776 97,53.75689601973326 98,53.82323713560947 99,53.89162094701517 100,53.96192874923076 101,54.03403849775805 102,54.10782502017241 103,54.183160233404585 104,54.259913366074926 105,54.33795118549423 106,54.417138228937006 107,54.497337038785815 108,54.57840840113844 109,54.66021158746369 110,54.74260459888648 111,54.82544441267793 112,54.90858723052284 113,54.9918887281334 114,55.075204305775955 115,55.15838933927588 116,55.24129943106491 117,55.32379066083507 118,55.40571983536421 119,55.486944737079334 120,55.56732437092645 121,55.64671920911819 122,55.72499143333452 123,55.802005173956076 124,55.877626745914725 125,55.95172488075219 126,56.02417095448368 127,56.094839210871115 128,56.16360697971834 129,56.23035488980942 130,56.29496707612032 131,56.357331380944416 132,56.41733954858252 133,56.47488741325962 134,56.52987507994209 135,56.582207097741474 136,56.631792625603865 137,56.678545589997235 138,56.722384834323044 139,56.76323425979274 140,56.80102295752457 141,56.83568533163152 142,56.867161213086504 143,56.89539596416746 144,56.920340573300734 145,56.94195174013829 146,56.96019195072111 147,56.97502954259812 148,56.986438759787795 149,56.99439979748693 150,56.998898836449 151,56.99992806697245 152,56.99748570245724 153,56.99157598250611 154,56.98220916556526 155,56.96940151111709 156,56.953175251456045 157,56.93355855309644 158,56.91058546787935 159,56.88429587386339 160,56.85473540610195 161,56.8219553774272 162,56.786012689378154 163,56.746969733427555 164,56.70489428267906 165,56.659859374222584 166,56.61194318235217 167,56.56122888286636 168,56.50780450868661 169,56.45176279704454 170,56.39320102850304 171,56.33222085809086 172,56.26892813884366 173,56.20343273805809 174,56.13584834657739 175,56.066292281440134 176,55.994885282234236 177,55.9217513015099 178,55.84701728961542 179,55.77081297432911 180,55.69327063567005 181,55.61452487627852 182,55.53471238776466 183,55.45397171343094 184,55.37244300778046 185,55.29026779322832 186,55.20758871443851 187,55.12454929071278 188,55.041293666861236 189,54.9579663629871 190,54.874712023620106 191,54.7916751666338 192,54.708999932382774 193,54.6268298334952 194,54.545307505755005 195,54.464574460506114 196,54.3847708390086 197,54.30603516917306 198,54.228504125095554 199,54.15231228981056 200,54.07759192167362 200,60.0 200,100.0 0,100.0 0,57.0" stroke="#2A363B" stroke-width="1" /></g></g><g transform="translate(400,330.0)"><rect fill="#2A363B" height="188.23529411764704" stroke="#2A363B" stroke-width="1" width="200" x="0" y="0" /><rect fill="#99B898" height="188.23529411764704" stroke="#2A363B" stroke-width="1" width="200" x="0" y="0.0" /><text alignment-baseline="middle" fill="lightgrey" font-family="Helvetica" font-size="16" font-weight="normal" stroke="black" stroke-width="0" text-anchor="middle" x="100.0" y="94.11764705882352">Bit band alias</text><text alignment-baseline="middle" fill="lightgrey" font-family="Helvetica" font-size="16" font-weight="normal" stroke="black" stroke-width="0" text-anchor="start" x="210" y="188.23529411764704">0x42000000</text></g></g><g><g transform="translate(50,50)" /><g transform="translate(400,216.66666666666669)" /><g transform="translate(400,116.66666666666669)" /><g transform="translate(400,50.00000000000003)" /><g transform="translate(400,618.2352941176471)" /><g transform="translate(400,518.2352941176471)" /><g transform="translate(400,330.0)" /></g><g><g transform="translate(50,50)"><g /><g /><g /><g /><g /><g /><g /></g><g transform="translate(400,216.66666666666669)"><g /></g><g transform="translate(400,116.66666666666669)"><g /></g><g transform="translate(400,50.00000000000003)"><g /><g /></g><g transform="translate(400,618.2352941176471)"><g /></g><g transform="translate(400,518.2352941176471)"><g /></g><g transform="translate(400,330.0)"><g /></g></g></svg>