<?xml version="1.0" encoding="utf-8" ?>
<svg baseProfile="full" height="1200" version="1.1" width="1200" xmlns="http://www.w3.org/2000/svg" xmlns:ev="http://www.w3.org/2001/xml-events" xmlns:xlink="http://www.w3.org/1999/xlink"><defs /><rect fill="#212b38" height="100%" width="100%" x="0" y="0" /><g><polyline fill="#F6F6F6" opacity="0.2" points="300,563.2847095597812 330,563.2847095597812 720,1050.0 750,1050.0 750,49.999999999999375 720,49.999999999999375 330,563.259602313428 300,563.259602313428" stroke="lightgrey" stroke-width="1" /><polyline fill="#F6F6F6" opacity="0.2" points="300,96.49648345923413 330,96.49648345923413 420,250.0 450,250.0 450,50.0 420,50.0 330,93.57905704610573 300,93.57905704610573" stroke="lightgrey" stroke-width="1" /><polyline fill="#F6F6F6" opacity="0.2" points="300,726.6605886949726 330,726.6605886949726 420,800.0 450,800.0 450,700.0 420,700.0 330,726.6377964750122 300,726.6377964750122" stroke="lightgrey" stroke-width="1" /><polyline fill="#F6F6F6" opacity="0.2" points="300,656.6430670421985 330,656.6430670421985 420,650.0 450,650.0 450,550.7270964614639 420,550.7270964614639 330,656.6427109110446 300,656.6427109110446" stroke="lightgrey" stroke-width="1" /></g><g /><g><text alignment-baseline="middle" fill="white" font-family="Helvetica" font-size="24px" font-weight="normal" stroke="black" stroke-width="0.1" text-anchor="middle" transform="translate(100,50)" x="100.0" y="-20">STM32F103 Memory Space</text><g transform="translate(100,50)"><rect fill="#212b38" height="700" stroke="black" stroke-width="0" width="200" x="0" y="0" /><rect fill="#08c6ab" height="23.33941130502735" stroke="black" stroke-width="0" width="200" x="0" y="676.6605886949727" /><text alignment-baseline="middle" fill="white" font-family="Helvetica" font-size="12" font-weight="normal" stroke="black" stroke-width="0.1" text-anchor="middle" x="100.0" y="688.3302943474864">Aliased</text><text alignment-baseline="middle" fill="white" font-family="Helvetica" font-size="12" font-weight="normal" stroke="black" stroke-width="0.1" text-anchor="start" x="210" y="700.0000000000001">0x0</text><rect fill="#08c6ab" height="0.02279221996040076" stroke="black" stroke-width="0" width="200" x="0" y="676.6377964750122" /><rect fill="#08c6ab" height="91.89679540051368" stroke="black" stroke-width="0" width="200" x="0" y="584.7410010744986" /><text alignment-baseline="middle" fill="white" font-family="Helvetica" font-size="12" font-weight="normal" stroke="black" stroke-width="0.1" text-anchor="middle" x="100.0" y="630.6893987747554">Reserved0</text><text alignment-baseline="middle" fill="white" font-family="Helvetica" font-size="12" font-weight="normal" stroke="black" stroke-width="0.1" text-anchor="start" x="210" y="676.6377964750124">0x801ffff</text><rect fill="#08c6ab" height="0.0003561311539463402" stroke="black" stroke-width="0" width="200" x="0" y="606.6427109110446" /><rect fill="#08c6ab" height="2.6083824751929214e-06" stroke="black" stroke-width="0" width="200" x="0" y="606.6427083026621" /><rect fill="#08c6ab" height="0.0003561311539463402" stroke="black" stroke-width="0" width="200" x="0" y="606.6423521715082" /><rect fill="#37465b" height="93.3576452201094" stroke="black" stroke-width="0" width="200" x="0" y="606.6423547798906" /><text alignment-baseline="middle" fill="white" font-family="Helvetica" font-size="12" font-weight="normal" stroke="black" stroke-width="0.1" text-anchor="start" x="210" y="700.0">0x0</text><rect fill="#37465b" height="93.3576452201094" stroke="black" stroke-width="0" width="200" x="0" y="513.2847095597813" /><text alignment-baseline="middle" fill="white" font-family="Helvetica" font-size="12" font-weight="normal" stroke="black" stroke-width="0.1" text-anchor="start" x="210" y="606.6423547798906">0x20000000</text><rect fill="#37465b" height="93.3576452201094" stroke="black" stroke-width="0" width="200" x="0" y="419.9270643396718" /><text alignment-baseline="middle" fill="white" font-family="Helvetica" font-size="12" font-weight="normal" stroke="black" stroke-width="0.1" text-anchor="start" x="210" y="513.2847095597812">0x40000000</text><rect fill="#37465b" height="93.3576452201094" stroke="black" stroke-width="0" width="200" x="0" y="326.5694191195624" /><text alignment-baseline="middle" fill="white" font-family="Helvetica" font-size="12" font-weight="normal" stroke="black" stroke-width="0.1" text-anchor="start" x="210" y="419.9270643396718">0x60000000</text><rect fill="#37465b" height="93.3576452201094" stroke="black" stroke-width="0" width="200" x="0" y="233.211773899453" /><text alignment-baseline="middle" fill="white" font-family="Helvetica" font-size="12" font-weight="normal" stroke="black" stroke-width="0.1" text-anchor="start" x="210" y="326.5694191195624">0x80000000</text><rect fill="#37465b" height="93.3576452201094" stroke="black" stroke-width="0" width="200" x="0" y="139.85412867934357" /><text alignment-baseline="middle" fill="white" font-family="Helvetica" font-size="12" font-weight="normal" stroke="black" stroke-width="0.1" text-anchor="start" x="210" y="233.21177389945296">0xa0000000</text><rect fill="#37465b" height="93.3576452201094" stroke="black" stroke-width="0" width="200" x="0" y="46.49648345923418" /><text alignment-baseline="middle" fill="white" font-family="Helvetica" font-size="12" font-weight="normal" stroke="black" stroke-width="0.1" text-anchor="start" x="210" y="139.85412867934357">0xc0000000</text><rect fill="#37465b" height="46.31414430841365" stroke="black" stroke-width="0" width="200" x="0" y="0.0" /><text alignment-baseline="middle" fill="white" font-family="Helvetica" font-size="12" font-weight="normal" stroke="black" stroke-width="0.1" text-anchor="start" x="210" y="46.31414430841365">0xe0100000</text><rect fill="#08c6ab" height="23.33941130502735" stroke="black" stroke-width="0" width="200" x="0" y="583.3029434748632" /><text alignment-baseline="middle" fill="white" font-family="Helvetica" font-size="12" font-weight="normal" stroke="black" stroke-width="0.1" text-anchor="middle" x="100.0" y="594.9726491273769">SRAM</text><text alignment-baseline="middle" fill="white" font-family="Helvetica" font-size="12" font-weight="normal" stroke="black" stroke-width="0.1" text-anchor="start" x="210" y="606.6423547798906">0x20000000</text><rect fill="#08c6ab" height="23.33941130502735" stroke="black" stroke-width="0" width="200" x="0" y="489.9452982547539" /><text alignment-baseline="middle" fill="white" font-family="Helvetica" font-size="12" font-weight="normal" stroke="black" stroke-width="0.1" text-anchor="middle" x="100.0" y="501.6150039072676">Peripherals</text><text alignment-baseline="middle" fill="white" font-family="Helvetica" font-size="12" font-weight="normal" stroke="black" stroke-width="0.1" text-anchor="start" x="210" y="513.2847095597813">0x40000000</text><rect fill="#08c6ab" height="2.917426413128419" stroke="black" stroke-width="0" width="200" x="0" y="43.57905704610576" /><rect fill="#08c6ab" height="0.0001780655769731701" stroke="black" stroke-width="0" width="200" x="0" y="513.2845314942042" /><rect fill="#08c6ab" height="0.0001780655769731701" stroke="black" stroke-width="0" width="200" x="0" y="513.2843534286272" /><rect fill="#08c6ab" height="0.0001780655769731701" stroke="black" stroke-width="0" width="200" x="0" y="513.2841753630503" /><rect fill="#08c6ab" height="0.0012464590388121908" stroke="black" stroke-width="0" width="200" x="0" y="513.2829289040114" /><rect fill="#08c6ab" height="0.0001780655769731701" stroke="black" stroke-width="0" width="200" x="0" y="513.2827508384345" /><rect fill="#08c6ab" height="0.0001780655769731701" stroke="black" stroke-width="0" width="200" x="0" y="513.2825727728575" /><rect fill="#08c6ab" height="0.0001780655769731701" stroke="black" stroke-width="0" width="200" x="0" y="513.2823947072806" /><rect fill="#08c6ab" height="0.0001780655769731701" stroke="black" stroke-width="0" width="200" x="0" y="513.2822166417036" /><rect fill="#08c6ab" height="0.0001780655769731701" stroke="black" stroke-width="0" width="200" x="0" y="513.2820385761266" /><rect fill="#08c6ab" height="0.0003561311539463402" stroke="black" stroke-width="0" width="200" x="0" y="513.2816824449727" /><rect fill="#08c6ab" height="0.0001780655769731701" stroke="black" stroke-width="0" width="200" x="0" y="513.2815043793958" /><rect fill="#08c6ab" height="0.0001780655769731701" stroke="black" stroke-width="0" width="200" x="0" y="513.2813263138187" /><rect fill="#08c6ab" height="0.0003561311539463402" stroke="black" stroke-width="0" width="200" x="0" y="513.2809701826648" /><rect fill="#08c6ab" height="0.0001780655769731701" stroke="black" stroke-width="0" width="200" x="0" y="513.2807921170878" /><rect fill="#08c6ab" height="0.0001780655769731701" stroke="black" stroke-width="0" width="200" x="0" y="513.2806140515108" /><rect fill="#08c6ab" height="0.0001780655769731701" stroke="black" stroke-width="0" width="200" x="0" y="513.2804359859339" /><rect fill="#08c6ab" height="0.0001780655769731701" stroke="black" stroke-width="0" width="200" x="0" y="513.2802579203569" /><rect fill="#08c6ab" height="0.0001780655769731701" stroke="black" stroke-width="0" width="200" x="0" y="513.28007985478" /><rect fill="#08c6ab" height="0.0001780655769731701" stroke="black" stroke-width="0" width="200" x="0" y="513.279901789203" /><rect fill="#08c6ab" height="0.0001780655769731701" stroke="black" stroke-width="0" width="200" x="0" y="513.2797237236259" /><rect fill="#08c6ab" height="0.0001780655769731701" stroke="black" stroke-width="0" width="200" x="0" y="513.279545658049" /><rect fill="#08c6ab" height="0.006232295194060954" stroke="black" stroke-width="0" width="200" x="0" y="513.273313362855" /><rect fill="#08c6ab" height="0.0001780655769731701" stroke="black" stroke-width="0" width="200" x="0" y="513.2731352972779" /><rect fill="#08c6ab" height="0.0001780655769731701" stroke="black" stroke-width="0" width="200" x="0" y="513.272957231701" /><rect fill="#08c6ab" height="0.0001780655769731701" stroke="black" stroke-width="0" width="200" x="0" y="513.272779166124" /><rect fill="#08c6ab" height="0.0001780655769731701" stroke="black" stroke-width="0" width="200" x="0" y="513.272601100547" /><rect fill="#08c6ab" height="0.0001780655769731701" stroke="black" stroke-width="0" width="200" x="0" y="513.2724230349701" /><rect fill="#08c6ab" height="0.0001780655769731701" stroke="black" stroke-width="0" width="200" x="0" y="513.2722449693931" /><rect fill="#08c6ab" height="0.0001780655769731701" stroke="black" stroke-width="0" width="200" x="0" y="513.2720669038162" /><rect fill="#08c6ab" height="0.0003561311539463402" stroke="black" stroke-width="0" width="200" x="0" y="513.2717107726622" /><rect fill="#08c6ab" height="0.0001780655769731701" stroke="black" stroke-width="0" width="200" x="0" y="513.2715327070852" /><rect fill="#08c6ab" height="0.0001780655769731701" stroke="black" stroke-width="0" width="200" x="0" y="513.2713546415082" /><rect fill="#08c6ab" height="0.0001780655769731701" stroke="black" stroke-width="0" width="200" x="0" y="513.2711765759312" /><rect fill="#08c6ab" height="0.0001780655769731701" stroke="black" stroke-width="0" width="200" x="0" y="513.2709985103543" /><rect fill="#08c6ab" height="0.0001780655769731701" stroke="black" stroke-width="0" width="200" x="0" y="513.2708204447773" /><rect fill="#08c6ab" height="0.0001780655769731701" stroke="black" stroke-width="0" width="200" x="0" y="513.2706423792004" /><rect fill="#08c6ab" height="0.008725213271685335" stroke="black" stroke-width="0" width="200" x="0" y="513.2619171659287" /><rect fill="#08c6ab" height="0.0001780655769731701" stroke="black" stroke-width="0" width="200" x="0" y="513.2617391003516" /><rect fill="#08c6ab" height="0.0005341967309195103" stroke="black" stroke-width="0" width="200" x="0" y="513.2612049036208" /><rect fill="#08c6ab" height="0.0001780655769731701" stroke="black" stroke-width="0" width="200" x="0" y="513.2610268380438" /><rect fill="#08c6ab" height="0.0005341967309195103" stroke="black" stroke-width="0" width="200" x="0" y="513.2604926413129" /><rect fill="#08c6ab" height="0.0001780655769731701" stroke="black" stroke-width="0" width="200" x="0" y="513.260314575736" /><rect fill="#08c6ab" height="0.0005341967309195103" stroke="black" stroke-width="0" width="200" x="0" y="513.259780379005" /><rect fill="#08c6ab" height="0.0001780655769731701" stroke="black" stroke-width="0" width="200" x="0" y="513.259602313428" /></g></g><g><text alignment-baseline="middle" fill="white" font-family="Helvetica" font-size="24px" font-weight="normal" stroke="black" stroke-width="0.1" text-anchor="middle" transform="translate(450,700)" x="100.0" y="-20" /><g transform="translate(450,700)"><rect fill="#212b38" height="100" stroke="black" stroke-width="0" width="200" x="0" y="0" /><rect fill="#726eff" height="100.0" stroke="black" stroke-width="0" width="200" x="0" y="0.0" /><text alignment-baseline="middle" fill="white" font-family="Helvetica" font-size="12" font-weight="normal" stroke="black" stroke-width="0.1" text-anchor="middle" x="100.0" y="50.0">Flash Memory</text><text alignment-baseline="middle" fill="white" font-family="Helvetica" font-size="12" font-weight="normal" stroke="black" stroke-width="0.1" text-anchor="start" x="210" y="100.0">0x8000000</text><text alignment-baseline="hanging" fill="white" font-family="Helvetica" font-size="12px" font-weight="normal" stroke="black" stroke-width="0.1" text-anchor="start" x="2" y="2.0">0x1ffff</text></g></g><g><text alignment-baseline="middle" fill="white" font-family="Helvetica" font-size="24px" font-weight="normal" stroke="black" stroke-width="0.1" text-anchor="middle" transform="translate(450,550)" x="100.0" y="-20" /><g transform="translate(450,550)"><rect fill="#212b38" height="100" stroke="black" stroke-width="0" width="200" x="0" y="0" /><rect fill="#4aefd7" height="99.27290353853611" stroke="black" stroke-width="0" width="200" x="0" y="0.7270964614638876" /><text alignment-baseline="middle" fill="white" font-family="Helvetica" font-size="12" font-weight="normal" stroke="black" stroke-width="0.1" text-anchor="middle" x="100.0" y="50.36354823073194">System Memory</text><text alignment-baseline="middle" fill="white" font-family="Helvetica" font-size="12" font-weight="normal" stroke="black" stroke-width="0.1" text-anchor="start" x="210" y="100.0">0x1ffff000</text><text alignment-baseline="hanging" fill="white" font-family="Helvetica" font-size="12px" font-weight="normal" stroke="black" stroke-width="0.1" text-anchor="start" x="2" y="2.7270964614638875">0x800</text><rect fill="#08c6ab" height="0.7270964614638876" stroke="black" stroke-width="0" width="200" x="0" y="0.0" /></g></g><g><text alignment-baseline="middle" fill="white" font-family="Helvetica" font-size="24px" font-weight="normal" stroke="black" stroke-width="0.1" text-anchor="middle" transform="translate(450,50)" x="100.0" y="-20" /><g transform="translate(450,50)"><rect fill="#212b38" height="200" stroke="black" stroke-width="0" width="200" x="0" y="0" /><rect fill="#08c6ab" height="200.0" stroke="black" stroke-width="0" width="200" x="0" y="0.0" /><text alignment-baseline="middle" fill="white" font-family="Helvetica" font-size="12" font-weight="normal" stroke="black" stroke-width="0.1" text-anchor="middle" x="100.0" y="100.0">M3 Cortex Internal Peripherals</text><text alignment-baseline="middle" fill="white" font-family="Helvetica" font-size="12" font-weight="normal" stroke="black" stroke-width="0.1" text-anchor="start" x="210" y="200.0">0xe0000000</text><text alignment-baseline="hanging" fill="white" font-family="Helvetica" font-size="12px" font-weight="normal" stroke="black" stroke-width="0.1" text-anchor="start" x="2" y="2.0">0x1000000</text></g></g><g><text alignment-baseline="middle" fill="white" font-family="Helvetica" font-size="24px" font-weight="normal" stroke="black" stroke-width="0.1" text-anchor="middle" transform="translate(750,50)" x="100.0" y="-20">APB memory space</text><g transform="translate(750,984.3749999999999)"><rect fill="#212b38" height="65.62500000000007" stroke="black" stroke-width="0" width="200" x="0" y="0" /><rect fill="#08c6ab" height="21.875000000000025" stroke="black" stroke-width="0" width="200" x="0" y="43.75000000000005" /><text alignment-baseline="middle" fill="white" font-family="Helvetica" font-size="12" font-weight="normal" stroke="black" stroke-width="0.1" text-anchor="middle" x="100.0" y="54.687500000000064">TIM2</text><text alignment-baseline="middle" fill="white" font-family="Helvetica" font-size="12" font-weight="normal" stroke="black" stroke-width="0.1" text-anchor="start" x="210" y="65.62500000000007">0x40000000</text><rect fill="#08c6ab" height="21.875000000000025" stroke="black" stroke-width="0" width="200" x="0" y="21.875000000000025" /><text alignment-baseline="middle" fill="white" font-family="Helvetica" font-size="12" font-weight="normal" stroke="black" stroke-width="0.1" text-anchor="middle" x="100.0" y="32.812500000000036">TIM3</text><text alignment-baseline="middle" fill="white" font-family="Helvetica" font-size="12" font-weight="normal" stroke="black" stroke-width="0.1" text-anchor="start" x="210" y="43.75000000000005">0x40000400</text><rect fill="#08c6ab" height="21.875000000000025" stroke="black" stroke-width="0" width="200" x="0" y="0.0" /><text alignment-baseline="middle" fill="white" font-family="Helvetica" font-size="12" font-weight="normal" stroke="black" stroke-width="0.1" text-anchor="middle" x="100.0" y="10.937500000000012">TIM4</text><text alignment-baseline="middle" fill="white" font-family="Helvetica" font-size="12" font-weight="normal" stroke="black" stroke-width="0.1" text-anchor="start" x="210" y="21.875000000000025">0x40000800</text></g><g transform="translate(750,959.3749999999999)"><rect fill="#212b38" height="25" stroke="black" stroke-width="0" width="200" x="0" y="0" /><g><rect fill="#37465b" height="24.999999999999996" width="200" x="0" y="0.0" /><polyline fill="none" points="0,9.999999999999998 0,0.0 200,0.0 200,9.999999999999998" stroke="black" stroke-width="0" /><polyline fill="none" points="0,14.999999999999996 0,24.999999999999996 200,24.999999999999996 200,14.999999999999996" stroke="black" stroke-width="0" /><polyline fill="none" points="-10.0,8.499999999999998 -9.0,8.377582561890371 -8.0,8.040302305868138 -7.0,7.5707372016677015 -6.0,7.083853163452856 -5.0,6.698856384453064 -4.0,6.510007503399553 -3.0,6.563543312709202 -2.0,6.846356379136386 -1.0,7.289204200569219 0.0,7.783662185463225 1.0,8.208669774291259 2.0,8.460170286650364 3.0,8.476587625728023 4.0,8.253902254343302 5.0,7.846635317835024 6.0,7.354499966191384 7.0,6.897988097315174 8.0,6.588869738115322 9.0,6.50282784380362" stroke="black" stroke-width="0" /><polyline fill="none" points="-10.0,18.5 -9.0,18.37758256189037 -8.0,18.04030230586814 -7.0,17.570737201667704 -6.0,17.083853163452858 -5.0,16.698856384453066 -4.0,16.510007503399553 -3.0,16.563543312709204 -2.0,16.846356379136388 -1.0,17.28920420056922 0.0,17.783662185463225 1.0,18.20866977429126 2.0,18.460170286650367 3.0,18.476587625728023 4.0,18.253902254343306 5.0,17.846635317835027 6.0,17.354499966191387 7.0,16.897988097315178 8.0,16.588869738115324 9.0,16.502827843803622" stroke="black" stroke-width="0" /><polyline fill="none" points="190.0,8.499999999999998 191.0,8.377582561890371 192.0,8.040302305868138 193.0,7.5707372016677015 194.0,7.083853163452856 195.0,6.698856384453064 196.0,6.510007503399553 197.0,6.563543312709202 198.0,6.846356379136386 199.0,7.289204200569219 200.0,7.783662185463225 201.0,8.208669774291259 202.0,8.460170286650364 203.0,8.476587625728023 204.0,8.253902254343302 205.0,7.846635317835024 206.0,7.354499966191384 207.0,6.897988097315174 208.0,6.588869738115322 209.0,6.50282784380362" stroke="black" stroke-width="0" /><polyline fill="none" points="190.0,18.5 191.0,18.37758256189037 192.0,18.04030230586814 193.0,17.570737201667704 194.0,17.083853163452858 195.0,16.698856384453066 196.0,16.510007503399553 197.0,16.563543312709204 198.0,16.846356379136388 199.0,17.28920420056922 200.0,17.783662185463225 201.0,18.20866977429126 202.0,18.460170286650367 203.0,18.476587625728023 204.0,18.253902254343306 205.0,17.846635317835027 206.0,17.354499966191387 207.0,16.897988097315178 208.0,16.588869738115324 209.0,16.502827843803622" stroke="black" stroke-width="0" /></g></g><g transform="translate(750,893.7499999999998)"><rect fill="#212b38" height="65.62500000000007" stroke="black" stroke-width="0" width="200" x="0" y="0" /><rect fill="#08c6ab" height="21.875000000000025" stroke="black" stroke-width="0" width="200" x="0" y="43.75000000000005" /><text alignment-baseline="middle" fill="white" font-family="Helvetica" font-size="12" font-weight="normal" stroke="black" stroke-width="0.1" text-anchor="middle" x="100.0" y="54.687500000000064">RTC</text><text alignment-baseline="middle" fill="white" font-family="Helvetica" font-size="12" font-weight="normal" stroke="black" stroke-width="0.1" text-anchor="start" x="210" y="65.62500000000007">0x40002800</text><rect fill="#08c6ab" height="21.875000000000025" stroke="black" stroke-width="0" width="200" x="0" y="21.875000000000025" /><text alignment-baseline="middle" fill="white" font-family="Helvetica" font-size="12" font-weight="normal" stroke="black" stroke-width="0.1" text-anchor="middle" x="100.0" y="32.812500000000036">WWDG</text><text alignment-baseline="middle" fill="white" font-family="Helvetica" font-size="12" font-weight="normal" stroke="black" stroke-width="0.1" text-anchor="start" x="210" y="43.75000000000005">0x40002c00</text><rect fill="#08c6ab" height="21.875000000000025" stroke="black" stroke-width="0" width="200" x="0" y="0.0" /><text alignment-baseline="middle" fill="white" font-family="Helvetica" font-size="12" font-weight="normal" stroke="black" stroke-width="0.1" text-anchor="middle" x="100.0" y="10.937500000000012">IWDG</text><text alignment-baseline="middle" fill="white" font-family="Helvetica" font-size="12" font-weight="normal" stroke="black" stroke-width="0.1" text-anchor="start" x="210" y="21.875000000000025">0x40003000</text></g><g transform="translate(750,868.7499999999998)"><rect fill="#212b38" height="25" stroke="black" stroke-width="0" width="200" x="0" y="0" /><g><rect fill="#37465b" height="25.0" width="200" x="0" y="0.0" /><polyline fill="none" points="0,10.0 0,0.0 200,0.0 200,10.0" stroke="black" stroke-width="0" /><polyline fill="none" points="0,15.0 0,25.0 200,25.0 200,15.0" stroke="black" stroke-width="0" /><polyline fill="none" points="-10.0,8.5 -9.0,8.377582561890373 -8.0,8.04030230586814 -7.0,7.570737201667703 -6.0,7.083853163452858 -5.0,6.698856384453066 -4.0,6.510007503399555 -3.0,6.5635433127092035 -2.0,6.846356379136388 -1.0,7.289204200569221 0.0,7.783662185463227 1.0,8.208669774291259 2.0,8.460170286650365 3.0,8.476587625728023 4.0,8.253902254343304 5.0,7.846635317835026 6.0,7.354499966191386 7.0,6.897988097315176 8.0,6.588869738115323 9.0,6.5028278438036216" stroke="black" stroke-width="0" /><polyline fill="none" points="-10.0,18.5 -9.0,18.37758256189037 -8.0,18.04030230586814 -7.0,17.570737201667704 -6.0,17.083853163452858 -5.0,16.698856384453066 -4.0,16.510007503399553 -3.0,16.563543312709204 -2.0,16.846356379136388 -1.0,17.28920420056922 0.0,17.783662185463225 1.0,18.20866977429126 2.0,18.460170286650367 3.0,18.476587625728023 4.0,18.253902254343306 5.0,17.846635317835027 6.0,17.354499966191387 7.0,16.897988097315178 8.0,16.588869738115324 9.0,16.502827843803622" stroke="black" stroke-width="0" /><polyline fill="none" points="190.0,8.5 191.0,8.377582561890373 192.0,8.04030230586814 193.0,7.570737201667703 194.0,7.083853163452858 195.0,6.698856384453066 196.0,6.510007503399555 197.0,6.5635433127092035 198.0,6.846356379136388 199.0,7.289204200569221 200.0,7.783662185463227 201.0,8.208669774291259 202.0,8.460170286650365 203.0,8.476587625728023 204.0,8.253902254343304 205.0,7.846635317835026 206.0,7.354499966191386 207.0,6.897988097315176 208.0,6.588869738115323 209.0,6.5028278438036216" stroke="black" stroke-width="0" /><polyline fill="none" points="190.0,18.5 191.0,18.37758256189037 192.0,18.04030230586814 193.0,17.570737201667704 194.0,17.083853163452858 195.0,16.698856384453066 196.0,16.510007503399553 197.0,16.563543312709204 198.0,16.846356379136388 199.0,17.28920420056922 200.0,17.783662185463225 201.0,18.20866977429126 202.0,18.460170286650367 203.0,18.476587625728023 204.0,18.253902254343306 205.0,17.846635317835027 206.0,17.354499966191387 207.0,16.897988097315178 208.0,16.588869738115324 209.0,16.502827843803622" stroke="black" stroke-width="0" /></g></g><g transform="translate(750,846.8749999999998)"><rect fill="#212b38" height="21.875000000000018" stroke="black" stroke-width="0" width="200" x="0" y="0" /><rect fill="#08c6ab" height="21.875000000000018" stroke="black" stroke-width="0" width="200" x="0" y="0.0" /><text alignment-baseline="middle" fill="white" font-family="Helvetica" font-size="12" font-weight="normal" stroke="black" stroke-width="0.1" text-anchor="middle" x="100.0" y="10.937500000000009">SPI2</text><text alignment-baseline="middle" fill="white" font-family="Helvetica" font-size="12" font-weight="normal" stroke="black" stroke-width="0.1" text-anchor="start" x="210" y="21.875000000000018">0x40003800</text></g><g transform="translate(750,821.8749999999998)"><rect fill="#212b38" height="25" stroke="black" stroke-width="0" width="200" x="0" y="0" /><g><rect fill="#37465b" height="25.0" width="200" x="0" y="0.0" /><polyline fill="none" points="0,10.0 0,0.0 200,0.0 200,10.0" stroke="black" stroke-width="0" /><polyline fill="none" points="0,15.0 0,25.0 200,25.0 200,15.0" stroke="black" stroke-width="0" /><polyline fill="none" points="-10.0,8.5 -9.0,8.377582561890373 -8.0,8.04030230586814 -7.0,7.570737201667703 -6.0,7.083853163452858 -5.0,6.698856384453066 -4.0,6.510007503399555 -3.0,6.5635433127092035 -2.0,6.846356379136388 -1.0,7.289204200569221 0.0,7.783662185463227 1.0,8.208669774291259 2.0,8.460170286650365 3.0,8.476587625728023 4.0,8.253902254343304 5.0,7.846635317835026 6.0,7.354499966191386 7.0,6.897988097315176 8.0,6.588869738115323 9.0,6.5028278438036216" stroke="black" stroke-width="0" /><polyline fill="none" points="-10.0,18.5 -9.0,18.37758256189037 -8.0,18.04030230586814 -7.0,17.570737201667704 -6.0,17.083853163452858 -5.0,16.698856384453066 -4.0,16.510007503399553 -3.0,16.563543312709204 -2.0,16.846356379136388 -1.0,17.28920420056922 0.0,17.783662185463225 1.0,18.20866977429126 2.0,18.460170286650367 3.0,18.476587625728023 4.0,18.253902254343306 5.0,17.846635317835027 6.0,17.354499966191387 7.0,16.897988097315178 8.0,16.588869738115324 9.0,16.502827843803622" stroke="black" stroke-width="0" /><polyline fill="none" points="190.0,8.5 191.0,8.377582561890373 192.0,8.04030230586814 193.0,7.570737201667703 194.0,7.083853163452858 195.0,6.698856384453066 196.0,6.510007503399555 197.0,6.5635433127092035 198.0,6.846356379136388 199.0,7.289204200569221 200.0,7.783662185463227 201.0,8.208669774291259 202.0,8.460170286650365 203.0,8.476587625728023 204.0,8.253902254343304 205.0,7.846635317835026 206.0,7.354499966191386 207.0,6.897988097315176 208.0,6.588869738115323 209.0,6.5028278438036216" stroke="black" stroke-width="0" /><polyline fill="none" points="190.0,18.5 191.0,18.37758256189037 192.0,18.04030230586814 193.0,17.570737201667704 194.0,17.083853163452858 195.0,16.698856384453066 196.0,16.510007503399553 197.0,16.563543312709204 198.0,16.846356379136388 199.0,17.28920420056922 200.0,17.783662185463225 201.0,18.20866977429126 202.0,18.460170286650367 203.0,18.476587625728023 204.0,18.253902254343306 205.0,17.846635317835027 206.0,17.354499966191387 207.0,16.897988097315178 208.0,16.588869738115324 209.0,16.502827843803622" stroke="black" stroke-width="0" /></g></g><g transform="translate(750,778.1249999999998)"><rect fill="#212b38" height="43.750000000000036" stroke="black" stroke-width="0" width="200" x="0" y="0" /><rect fill="#08c6ab" height="21.875000000000018" stroke="black" stroke-width="0" width="200" x="0" y="21.875000000000018" /><text alignment-baseline="middle" fill="white" font-family="Helvetica" font-size="12" font-weight="normal" stroke="black" stroke-width="0.1" text-anchor="middle" x="100.0" y="32.81250000000003">USART2</text><text alignment-baseline="middle" fill="white" font-family="Helvetica" font-size="12" font-weight="normal" stroke="black" stroke-width="0.1" text-anchor="start" x="210" y="43.750000000000036">0x40004400</text><rect fill="#08c6ab" height="21.875000000000018" stroke="black" stroke-width="0" width="200" x="0" y="0.0" /><text alignment-baseline="middle" fill="white" font-family="Helvetica" font-size="12" font-weight="normal" stroke="black" stroke-width="0.1" text-anchor="middle" x="100.0" y="10.937500000000009">USART3</text><text alignment-baseline="middle" fill="white" font-family="Helvetica" font-size="12" font-weight="normal" stroke="black" stroke-width="0.1" text-anchor="start" x="210" y="21.875000000000018">0x40004800</text></g><g transform="translate(750,753.1249999999998)"><rect fill="#212b38" height="25" stroke="black" stroke-width="0" width="200" x="0" y="0" /><g><rect fill="#37465b" height="25.0" width="200" x="0" y="0.0" /><polyline fill="none" points="0,10.0 0,0.0 200,0.0 200,10.0" stroke="black" stroke-width="0" /><polyline fill="none" points="0,15.0 0,25.0 200,25.0 200,15.0" stroke="black" stroke-width="0" /><polyline fill="none" points="-10.0,8.5 -9.0,8.377582561890373 -8.0,8.04030230586814 -7.0,7.570737201667703 -6.0,7.083853163452858 -5.0,6.698856384453066 -4.0,6.510007503399555 -3.0,6.5635433127092035 -2.0,6.846356379136388 -1.0,7.289204200569221 0.0,7.783662185463227 1.0,8.208669774291259 2.0,8.460170286650365 3.0,8.476587625728023 4.0,8.253902254343304 5.0,7.846635317835026 6.0,7.354499966191386 7.0,6.897988097315176 8.0,6.588869738115323 9.0,6.5028278438036216" stroke="black" stroke-width="0" /><polyline fill="none" points="-10.0,18.5 -9.0,18.37758256189037 -8.0,18.04030230586814 -7.0,17.570737201667704 -6.0,17.083853163452858 -5.0,16.698856384453066 -4.0,16.510007503399553 -3.0,16.563543312709204 -2.0,16.846356379136388 -1.0,17.28920420056922 0.0,17.783662185463225 1.0,18.20866977429126 2.0,18.460170286650367 3.0,18.476587625728023 4.0,18.253902254343306 5.0,17.846635317835027 6.0,17.354499966191387 7.0,16.897988097315178 8.0,16.588869738115324 9.0,16.502827843803622" stroke="black" stroke-width="0" /><polyline fill="none" points="190.0,8.5 191.0,8.377582561890373 192.0,8.04030230586814 193.0,7.570737201667703 194.0,7.083853163452858 195.0,6.698856384453066 196.0,6.510007503399555 197.0,6.5635433127092035 198.0,6.846356379136388 199.0,7.289204200569221 200.0,7.783662185463227 201.0,8.208669774291259 202.0,8.460170286650365 203.0,8.476587625728023 204.0,8.253902254343304 205.0,7.846635317835026 206.0,7.354499966191386 207.0,6.897988097315176 208.0,6.588869738115323 209.0,6.5028278438036216" stroke="black" stroke-width="0" /><polyline fill="none" points="190.0,18.5 191.0,18.37758256189037 192.0,18.04030230586814 193.0,17.570737201667704 194.0,17.083853163452858 195.0,16.698856384453066 196.0,16.510007503399553 197.0,16.563543312709204 198.0,16.846356379136388 199.0,17.28920420056922 200.0,17.783662185463225 201.0,18.20866977429126 202.0,18.460170286650367 203.0,18.476587625728023 204.0,18.253902254343306 205.0,17.846635317835027 206.0,17.354499966191387 207.0,16.897988097315178 208.0,16.588869738115324 209.0,16.502827843803622" stroke="black" stroke-width="0" /></g></g><g transform="translate(750,643.7499999999997)"><rect fill="#212b38" height="109.3750000000001" stroke="black" stroke-width="0" width="200" x="0" y="0" /><rect fill="#08c6ab" height="21.87500000000002" stroke="black" stroke-width="0" width="200" x="0" y="87.50000000000009" /><text alignment-baseline="middle" fill="white" font-family="Helvetica" font-size="12" font-weight="normal" stroke="black" stroke-width="0.1" text-anchor="middle" x="100.0" y="98.4375000000001">I2C1</text><text alignment-baseline="middle" fill="white" font-family="Helvetica" font-size="12" font-weight="normal" stroke="black" stroke-width="0.1" text-anchor="start" x="210" y="109.37500000000011">0x40005400</text><rect fill="#08c6ab" height="21.87500000000002" stroke="black" stroke-width="0" width="200" x="0" y="65.62500000000006" /><text alignment-baseline="middle" fill="white" font-family="Helvetica" font-size="12" font-weight="normal" stroke="black" stroke-width="0.1" text-anchor="middle" x="100.0" y="76.56250000000007">I2C2</text><text alignment-baseline="middle" fill="white" font-family="Helvetica" font-size="12" font-weight="normal" stroke="black" stroke-width="0.1" text-anchor="start" x="210" y="87.50000000000009">0x40005800</text><rect fill="#08c6ab" height="21.87500000000002" stroke="black" stroke-width="0" width="200" x="0" y="43.75000000000004" /><text alignment-baseline="middle" fill="white" font-family="Helvetica" font-size="12" font-weight="normal" stroke="black" stroke-width="0.1" text-anchor="middle" x="100.0" y="54.68750000000006">USB Registers</text><text alignment-baseline="middle" fill="white" font-family="Helvetica" font-size="12" font-weight="normal" stroke="black" stroke-width="0.1" text-anchor="start" x="210" y="65.62500000000006">0x40005c00</text><rect fill="#08c6ab" height="21.87500000000002" stroke="black" stroke-width="0" width="200" x="0" y="21.87500000000002" /><text alignment-baseline="middle" fill="white" font-family="Helvetica" font-size="12" font-weight="normal" stroke="black" stroke-width="0.1" text-anchor="middle" x="100.0" y="32.81250000000003">USB/CAN SRAM</text><text alignment-baseline="middle" fill="white" font-family="Helvetica" font-size="12" font-weight="normal" stroke="black" stroke-width="0.1" text-anchor="start" x="210" y="43.75000000000004">0x40006000</text><rect fill="#08c6ab" height="21.87500000000002" stroke="black" stroke-width="0" width="200" x="0" y="0.0" /><text alignment-baseline="middle" fill="white" font-family="Helvetica" font-size="12" font-weight="normal" stroke="black" stroke-width="0.1" text-anchor="middle" x="100.0" y="10.93750000000001">BXCAN</text><text alignment-baseline="middle" fill="white" font-family="Helvetica" font-size="12" font-weight="normal" stroke="black" stroke-width="0.1" text-anchor="start" x="210" y="21.87500000000002">0x40006400</text></g><g transform="translate(750,618.7499999999997)"><rect fill="#212b38" height="25" stroke="black" stroke-width="0" width="200" x="0" y="0" /><g><rect fill="#37465b" height="25.0" width="200" x="0" y="0.0" /><polyline fill="none" points="0,10.0 0,0.0 200,0.0 200,10.0" stroke="black" stroke-width="0" /><polyline fill="none" points="0,15.0 0,25.0 200,25.0 200,15.0" stroke="black" stroke-width="0" /><polyline fill="none" points="-10.0,8.5 -9.0,8.377582561890373 -8.0,8.04030230586814 -7.0,7.570737201667703 -6.0,7.083853163452858 -5.0,6.698856384453066 -4.0,6.510007503399555 -3.0,6.5635433127092035 -2.0,6.846356379136388 -1.0,7.289204200569221 0.0,7.783662185463227 1.0,8.208669774291259 2.0,8.460170286650365 3.0,8.476587625728023 4.0,8.253902254343304 5.0,7.846635317835026 6.0,7.354499966191386 7.0,6.897988097315176 8.0,6.588869738115323 9.0,6.5028278438036216" stroke="black" stroke-width="0" /><polyline fill="none" points="-10.0,18.5 -9.0,18.37758256189037 -8.0,18.04030230586814 -7.0,17.570737201667704 -6.0,17.083853163452858 -5.0,16.698856384453066 -4.0,16.510007503399553 -3.0,16.563543312709204 -2.0,16.846356379136388 -1.0,17.28920420056922 0.0,17.783662185463225 1.0,18.20866977429126 2.0,18.460170286650367 3.0,18.476587625728023 4.0,18.253902254343306 5.0,17.846635317835027 6.0,17.354499966191387 7.0,16.897988097315178 8.0,16.588869738115324 9.0,16.502827843803622" stroke="black" stroke-width="0" /><polyline fill="none" points="190.0,8.5 191.0,8.377582561890373 192.0,8.04030230586814 193.0,7.570737201667703 194.0,7.083853163452858 195.0,6.698856384453066 196.0,6.510007503399555 197.0,6.5635433127092035 198.0,6.846356379136388 199.0,7.289204200569221 200.0,7.783662185463227 201.0,8.208669774291259 202.0,8.460170286650365 203.0,8.476587625728023 204.0,8.253902254343304 205.0,7.846635317835026 206.0,7.354499966191386 207.0,6.897988097315176 208.0,6.588869738115323 209.0,6.5028278438036216" stroke="black" stroke-width="0" /><polyline fill="none" points="190.0,18.5 191.0,18.37758256189037 192.0,18.04030230586814 193.0,17.570737201667704 194.0,17.083853163452858 195.0,16.698856384453066 196.0,16.510007503399553 197.0,16.563543312709204 198.0,16.846356379136388 199.0,17.28920420056922 200.0,17.783662185463225 201.0,18.20866977429126 202.0,18.460170286650367 203.0,18.476587625728023 204.0,18.253902254343306 205.0,17.846635317835027 206.0,17.354499966191387 207.0,16.897988097315178 208.0,16.588869738115324 209.0,16.502827843803622" stroke="black" stroke-width="0" /></g></g><g transform="translate(750,574.9999999999997)"><rect fill="#212b38" height="43.750000000000036" stroke="black" stroke-width="0" width="200" x="0" y="0" /><rect fill="#08c6ab" height="21.875000000000018" stroke="black" stroke-width="0" width="200" x="0" y="21.875000000000018" /><text alignment-baseline="middle" fill="white" font-family="Helvetica" font-size="12" font-weight="normal" stroke="black" stroke-width="0.1" text-anchor="middle" x="100.0" y="32.81250000000003">BKP</text><text alignment-baseline="middle" fill="white" font-family="Helvetica" font-size="12" font-weight="normal" stroke="black" stroke-width="0.1" text-anchor="start" x="210" y="43.750000000000036">0x40006c00</text><rect fill="#08c6ab" height="21.875000000000018" stroke="black" stroke-width="0" width="200" x="0" y="0.0" /><text alignment-baseline="middle" fill="white" font-family="Helvetica" font-size="12" font-weight="normal" stroke="black" stroke-width="0.1" text-anchor="middle" x="100.0" y="10.937500000000009">PWR</text><text alignment-baseline="middle" fill="white" font-family="Helvetica" font-size="12" font-weight="normal" stroke="black" stroke-width="0.1" text-anchor="start" x="210" y="21.875000000000018">0x40007000</text></g><g transform="translate(750,549.9999999999997)"><rect fill="#212b38" height="25" stroke="black" stroke-width="0" width="200" x="0" y="0" /><g><rect fill="#37465b" height="25.0" width="200" x="0" y="0.0" /><polyline fill="none" points="0,10.0 0,0.0 200,0.0 200,10.0" stroke="black" stroke-width="0" /><polyline fill="none" points="0,15.0 0,25.0 200,25.0 200,15.0" stroke="black" stroke-width="0" /><polyline fill="none" points="-10.0,8.5 -9.0,8.377582561890373 -8.0,8.04030230586814 -7.0,7.570737201667703 -6.0,7.083853163452858 -5.0,6.698856384453066 -4.0,6.510007503399555 -3.0,6.5635433127092035 -2.0,6.846356379136388 -1.0,7.289204200569221 0.0,7.783662185463227 1.0,8.208669774291259 2.0,8.460170286650365 3.0,8.476587625728023 4.0,8.253902254343304 5.0,7.846635317835026 6.0,7.354499966191386 7.0,6.897988097315176 8.0,6.588869738115323 9.0,6.5028278438036216" stroke="black" stroke-width="0" /><polyline fill="none" points="-10.0,18.5 -9.0,18.37758256189037 -8.0,18.04030230586814 -7.0,17.570737201667704 -6.0,17.083853163452858 -5.0,16.698856384453066 -4.0,16.510007503399553 -3.0,16.563543312709204 -2.0,16.846356379136388 -1.0,17.28920420056922 0.0,17.783662185463225 1.0,18.20866977429126 2.0,18.460170286650367 3.0,18.476587625728023 4.0,18.253902254343306 5.0,17.846635317835027 6.0,17.354499966191387 7.0,16.897988097315178 8.0,16.588869738115324 9.0,16.502827843803622" stroke="black" stroke-width="0" /><polyline fill="none" points="190.0,8.5 191.0,8.377582561890373 192.0,8.04030230586814 193.0,7.570737201667703 194.0,7.083853163452858 195.0,6.698856384453066 196.0,6.510007503399555 197.0,6.5635433127092035 198.0,6.846356379136388 199.0,7.289204200569221 200.0,7.783662185463227 201.0,8.208669774291259 202.0,8.460170286650365 203.0,8.476587625728023 204.0,8.253902254343304 205.0,7.846635317835026 206.0,7.354499966191386 207.0,6.897988097315176 208.0,6.588869738115323 209.0,6.5028278438036216" stroke="black" stroke-width="0" /><polyline fill="none" points="190.0,18.5 191.0,18.37758256189037 192.0,18.04030230586814 193.0,17.570737201667704 194.0,17.083853163452858 195.0,16.698856384453066 196.0,16.510007503399553 197.0,16.563543312709204 198.0,16.846356379136388 199.0,17.28920420056922 200.0,17.783662185463225 201.0,18.20866977429126 202.0,18.460170286650367 203.0,18.476587625728023 204.0,18.253902254343306 205.0,17.846635317835027 206.0,17.354499966191387 207.0,16.897988097315178 208.0,16.588869738115324 209.0,16.502827843803622" stroke="black" stroke-width="0" /></g></g><g transform="translate(750,396.87499999999955)"><rect fill="#212b38" height="153.12500000000014" stroke="black" stroke-width="0" width="200" x="0" y="0" /><rect fill="#726eff" height="21.87500000000002" stroke="black" stroke-width="0" width="200" x="0" y="131.2500000000001" /><text alignment-baseline="middle" fill="white" font-family="Helvetica" font-size="12" font-weight="normal" stroke="black" stroke-width="0.1" text-anchor="middle" x="100.0" y="142.1875000000001">AFIO</text><text alignment-baseline="middle" fill="white" font-family="Helvetica" font-size="12" font-weight="normal" stroke="black" stroke-width="0.1" text-anchor="start" x="210" y="153.12500000000014">0x40010000</text><rect fill="#726eff" height="21.87500000000002" stroke="black" stroke-width="0" width="200" x="0" y="109.3750000000001" /><text alignment-baseline="middle" fill="white" font-family="Helvetica" font-size="12" font-weight="normal" stroke="black" stroke-width="0.1" text-anchor="middle" x="100.0" y="120.31250000000011">EXTI</text><text alignment-baseline="middle" fill="white" font-family="Helvetica" font-size="12" font-weight="normal" stroke="black" stroke-width="0.1" text-anchor="start" x="210" y="131.2500000000001">0x40010400</text><rect fill="#726eff" height="21.87500000000002" stroke="black" stroke-width="0" width="200" x="0" y="87.50000000000009" /><text alignment-baseline="middle" fill="white" font-family="Helvetica" font-size="12" font-weight="normal" stroke="black" stroke-width="0.1" text-anchor="middle" x="100.0" y="98.4375000000001">PORT A</text><text alignment-baseline="middle" fill="white" font-family="Helvetica" font-size="12" font-weight="normal" stroke="black" stroke-width="0.1" text-anchor="start" x="210" y="109.37500000000011">0x40010800</text><rect fill="#726eff" height="21.87500000000002" stroke="black" stroke-width="0" width="200" x="0" y="65.62500000000006" /><text alignment-baseline="middle" fill="white" font-family="Helvetica" font-size="12" font-weight="normal" stroke="black" stroke-width="0.1" text-anchor="middle" x="100.0" y="76.56250000000007">PORT B</text><text alignment-baseline="middle" fill="white" font-family="Helvetica" font-size="12" font-weight="normal" stroke="black" stroke-width="0.1" text-anchor="start" x="210" y="87.50000000000009">0x40010c00</text><rect fill="#726eff" height="21.87500000000002" stroke="black" stroke-width="0" width="200" x="0" y="43.75000000000004" /><text alignment-baseline="middle" fill="white" font-family="Helvetica" font-size="12" font-weight="normal" stroke="black" stroke-width="0.1" text-anchor="middle" x="100.0" y="54.68750000000006">PORT C</text><text alignment-baseline="middle" fill="white" font-family="Helvetica" font-size="12" font-weight="normal" stroke="black" stroke-width="0.1" text-anchor="start" x="210" y="65.62500000000006">0x40011000</text><rect fill="#726eff" height="21.87500000000002" stroke="black" stroke-width="0" width="200" x="0" y="21.87500000000002" /><text alignment-baseline="middle" fill="white" font-family="Helvetica" font-size="12" font-weight="normal" stroke="black" stroke-width="0.1" text-anchor="middle" x="100.0" y="32.81250000000003">PORT D</text><text alignment-baseline="middle" fill="white" font-family="Helvetica" font-size="12" font-weight="normal" stroke="black" stroke-width="0.1" text-anchor="start" x="210" y="43.75000000000004">0x40011400</text><rect fill="#726eff" height="21.87500000000002" stroke="black" stroke-width="0" width="200" x="0" y="0.0" /><text alignment-baseline="middle" fill="white" font-family="Helvetica" font-size="12" font-weight="normal" stroke="black" stroke-width="0.1" text-anchor="middle" x="100.0" y="10.93750000000001">PORT E</text><text alignment-baseline="middle" fill="white" font-family="Helvetica" font-size="12" font-weight="normal" stroke="black" stroke-width="0.1" text-anchor="start" x="210" y="21.87500000000002">0x40011800</text></g><g transform="translate(750,371.87499999999955)"><rect fill="#212b38" height="25" stroke="black" stroke-width="0" width="200" x="0" y="0" /><g><rect fill="#37465b" height="25.0" width="200" x="0" y="0.0" /><polyline fill="none" points="0,10.0 0,0.0 200,0.0 200,10.0" stroke="black" stroke-width="0" /><polyline fill="none" points="0,15.0 0,25.0 200,25.0 200,15.0" stroke="black" stroke-width="0" /><polyline fill="none" points="-10.0,8.5 -9.0,8.377582561890373 -8.0,8.04030230586814 -7.0,7.570737201667703 -6.0,7.083853163452858 -5.0,6.698856384453066 -4.0,6.510007503399555 -3.0,6.5635433127092035 -2.0,6.846356379136388 -1.0,7.289204200569221 0.0,7.783662185463227 1.0,8.208669774291259 2.0,8.460170286650365 3.0,8.476587625728023 4.0,8.253902254343304 5.0,7.846635317835026 6.0,7.354499966191386 7.0,6.897988097315176 8.0,6.588869738115323 9.0,6.5028278438036216" stroke="black" stroke-width="0" /><polyline fill="none" points="-10.0,18.5 -9.0,18.37758256189037 -8.0,18.04030230586814 -7.0,17.570737201667704 -6.0,17.083853163452858 -5.0,16.698856384453066 -4.0,16.510007503399553 -3.0,16.563543312709204 -2.0,16.846356379136388 -1.0,17.28920420056922 0.0,17.783662185463225 1.0,18.20866977429126 2.0,18.460170286650367 3.0,18.476587625728023 4.0,18.253902254343306 5.0,17.846635317835027 6.0,17.354499966191387 7.0,16.897988097315178 8.0,16.588869738115324 9.0,16.502827843803622" stroke="black" stroke-width="0" /><polyline fill="none" points="190.0,8.5 191.0,8.377582561890373 192.0,8.04030230586814 193.0,7.570737201667703 194.0,7.083853163452858 195.0,6.698856384453066 196.0,6.510007503399555 197.0,6.5635433127092035 198.0,6.846356379136388 199.0,7.289204200569221 200.0,7.783662185463227 201.0,8.208669774291259 202.0,8.460170286650365 203.0,8.476587625728023 204.0,8.253902254343304 205.0,7.846635317835026 206.0,7.354499966191386 207.0,6.897988097315176 208.0,6.588869738115323 209.0,6.5028278438036216" stroke="black" stroke-width="0" /><polyline fill="none" points="190.0,18.5 191.0,18.37758256189037 192.0,18.04030230586814 193.0,17.570737201667704 194.0,17.083853163452858 195.0,16.698856384453066 196.0,16.510007503399553 197.0,16.563543312709204 198.0,16.846356379136388 199.0,17.28920420056922 200.0,17.783662185463225 201.0,18.20866977429126 202.0,18.460170286650367 203.0,18.476587625728023 204.0,18.253902254343306 205.0,17.846635317835027 206.0,17.354499966191387 207.0,16.897988097315178 208.0,16.588869738115324 209.0,16.502827843803622" stroke="black" stroke-width="0" /></g></g><g transform="translate(750,284.3749999999995)"><rect fill="#212b38" height="87.50000000000007" stroke="black" stroke-width="0" width="200" x="0" y="0" /><rect fill="#08c6ab" height="21.875000000000018" stroke="black" stroke-width="0" width="200" x="0" y="65.62500000000006" /><text alignment-baseline="middle" fill="white" font-family="Helvetica" font-size="12" font-weight="normal" stroke="black" stroke-width="0.1" text-anchor="middle" x="100.0" y="76.56250000000007">ADC1</text><text alignment-baseline="middle" fill="white" font-family="Helvetica" font-size="12" font-weight="normal" stroke="black" stroke-width="0.1" text-anchor="start" x="210" y="87.50000000000007">0x40012400</text><rect fill="#08c6ab" height="21.875000000000018" stroke="black" stroke-width="0" width="200" x="0" y="43.750000000000036" /><text alignment-baseline="middle" fill="white" font-family="Helvetica" font-size="12" font-weight="normal" stroke="black" stroke-width="0.1" text-anchor="middle" x="100.0" y="54.68750000000004">ADC2</text><text alignment-baseline="middle" fill="white" font-family="Helvetica" font-size="12" font-weight="normal" stroke="black" stroke-width="0.1" text-anchor="start" x="210" y="65.62500000000006">0x40012800</text><rect fill="#08c6ab" height="21.875000000000018" stroke="black" stroke-width="0" width="200" x="0" y="21.875000000000018" /><text alignment-baseline="middle" fill="white" font-family="Helvetica" font-size="12" font-weight="normal" stroke="black" stroke-width="0.1" text-anchor="middle" x="100.0" y="32.81250000000003">TIM1</text><text alignment-baseline="middle" fill="white" font-family="Helvetica" font-size="12" font-weight="normal" stroke="black" stroke-width="0.1" text-anchor="start" x="210" y="43.750000000000036">0x40012c00</text><rect fill="#08c6ab" height="21.875000000000018" stroke="black" stroke-width="0" width="200" x="0" y="0.0" /><text alignment-baseline="middle" fill="white" font-family="Helvetica" font-size="12" font-weight="normal" stroke="black" stroke-width="0.1" text-anchor="middle" x="100.0" y="10.937500000000009">SPI1</text><text alignment-baseline="middle" fill="white" font-family="Helvetica" font-size="12" font-weight="normal" stroke="black" stroke-width="0.1" text-anchor="start" x="210" y="21.875000000000018">0x40013000</text></g><g transform="translate(750,259.3749999999995)"><rect fill="#212b38" height="25" stroke="black" stroke-width="0" width="200" x="0" y="0" /><g><rect fill="#37465b" height="25.0" width="200" x="0" y="0.0" /><polyline fill="none" points="0,10.0 0,0.0 200,0.0 200,10.0" stroke="black" stroke-width="0" /><polyline fill="none" points="0,15.0 0,25.0 200,25.0 200,15.0" stroke="black" stroke-width="0" /><polyline fill="none" points="-10.0,8.5 -9.0,8.377582561890373 -8.0,8.04030230586814 -7.0,7.570737201667703 -6.0,7.083853163452858 -5.0,6.698856384453066 -4.0,6.510007503399555 -3.0,6.5635433127092035 -2.0,6.846356379136388 -1.0,7.289204200569221 0.0,7.783662185463227 1.0,8.208669774291259 2.0,8.460170286650365 3.0,8.476587625728023 4.0,8.253902254343304 5.0,7.846635317835026 6.0,7.354499966191386 7.0,6.897988097315176 8.0,6.588869738115323 9.0,6.5028278438036216" stroke="black" stroke-width="0" /><polyline fill="none" points="-10.0,18.5 -9.0,18.37758256189037 -8.0,18.04030230586814 -7.0,17.570737201667704 -6.0,17.083853163452858 -5.0,16.698856384453066 -4.0,16.510007503399553 -3.0,16.563543312709204 -2.0,16.846356379136388 -1.0,17.28920420056922 0.0,17.783662185463225 1.0,18.20866977429126 2.0,18.460170286650367 3.0,18.476587625728023 4.0,18.253902254343306 5.0,17.846635317835027 6.0,17.354499966191387 7.0,16.897988097315178 8.0,16.588869738115324 9.0,16.502827843803622" stroke="black" stroke-width="0" /><polyline fill="none" points="190.0,8.5 191.0,8.377582561890373 192.0,8.04030230586814 193.0,7.570737201667703 194.0,7.083853163452858 195.0,6.698856384453066 196.0,6.510007503399555 197.0,6.5635433127092035 198.0,6.846356379136388 199.0,7.289204200569221 200.0,7.783662185463227 201.0,8.208669774291259 202.0,8.460170286650365 203.0,8.476587625728023 204.0,8.253902254343304 205.0,7.846635317835026 206.0,7.354499966191386 207.0,6.897988097315176 208.0,6.588869738115323 209.0,6.5028278438036216" stroke="black" stroke-width="0" /><polyline fill="none" points="190.0,18.5 191.0,18.37758256189037 192.0,18.04030230586814 193.0,17.570737201667704 194.0,17.083853163452858 195.0,16.698856384453066 196.0,16.510007503399553 197.0,16.563543312709204 198.0,16.846356379136388 199.0,17.28920420056922 200.0,17.783662185463225 201.0,18.20866977429126 202.0,18.460170286650367 203.0,18.476587625728023 204.0,18.253902254343306 205.0,17.846635317835027 206.0,17.354499966191387 207.0,16.897988097315178 208.0,16.588869738115324 209.0,16.502827843803622" stroke="black" stroke-width="0" /></g></g><g transform="translate(750,237.49999999999946)"><rect fill="#212b38" height="21.875000000000018" stroke="black" stroke-width="0" width="200" x="0" y="0" /><rect fill="#08c6ab" height="21.875000000000018" stroke="black" stroke-width="0" width="200" x="0" y="0.0" /><text alignment-baseline="middle" fill="white" font-family="Helvetica" font-size="12" font-weight="normal" stroke="black" stroke-width="0.1" text-anchor="middle" x="100.0" y="10.937500000000009">USART1</text><text alignment-baseline="middle" fill="white" font-family="Helvetica" font-size="12" font-weight="normal" stroke="black" stroke-width="0.1" text-anchor="start" x="210" y="21.875000000000018">0x40013800</text></g><g transform="translate(750,212.49999999999946)"><rect fill="#212b38" height="25" stroke="black" stroke-width="0" width="200" x="0" y="0" /><g><rect fill="#37465b" height="25.0" width="200" x="0" y="0.0" /><polyline fill="none" points="0,10.0 0,0.0 200,0.0 200,10.0" stroke="black" stroke-width="0" /><polyline fill="none" points="0,15.0 0,25.0 200,25.0 200,15.0" stroke="black" stroke-width="0" /><polyline fill="none" points="-10.0,8.5 -9.0,8.377582561890373 -8.0,8.04030230586814 -7.0,7.570737201667703 -6.0,7.083853163452858 -5.0,6.698856384453066 -4.0,6.510007503399555 -3.0,6.5635433127092035 -2.0,6.846356379136388 -1.0,7.289204200569221 0.0,7.783662185463227 1.0,8.208669774291259 2.0,8.460170286650365 3.0,8.476587625728023 4.0,8.253902254343304 5.0,7.846635317835026 6.0,7.354499966191386 7.0,6.897988097315176 8.0,6.588869738115323 9.0,6.5028278438036216" stroke="black" stroke-width="0" /><polyline fill="none" points="-10.0,18.5 -9.0,18.37758256189037 -8.0,18.04030230586814 -7.0,17.570737201667704 -6.0,17.083853163452858 -5.0,16.698856384453066 -4.0,16.510007503399553 -3.0,16.563543312709204 -2.0,16.846356379136388 -1.0,17.28920420056922 0.0,17.783662185463225 1.0,18.20866977429126 2.0,18.460170286650367 3.0,18.476587625728023 4.0,18.253902254343306 5.0,17.846635317835027 6.0,17.354499966191387 7.0,16.897988097315178 8.0,16.588869738115324 9.0,16.502827843803622" stroke="black" stroke-width="0" /><polyline fill="none" points="190.0,8.5 191.0,8.377582561890373 192.0,8.04030230586814 193.0,7.570737201667703 194.0,7.083853163452858 195.0,6.698856384453066 196.0,6.510007503399555 197.0,6.5635433127092035 198.0,6.846356379136388 199.0,7.289204200569221 200.0,7.783662185463227 201.0,8.208669774291259 202.0,8.460170286650365 203.0,8.476587625728023 204.0,8.253902254343304 205.0,7.846635317835026 206.0,7.354499966191386 207.0,6.897988097315176 208.0,6.588869738115323 209.0,6.5028278438036216" stroke="black" stroke-width="0" /><polyline fill="none" points="190.0,18.5 191.0,18.37758256189037 192.0,18.04030230586814 193.0,17.570737201667704 194.0,17.083853163452858 195.0,16.698856384453066 196.0,16.510007503399553 197.0,16.563543312709204 198.0,16.846356379136388 199.0,17.28920420056922 200.0,17.783662185463225 201.0,18.20866977429126 202.0,18.460170286650367 203.0,18.476587625728023 204.0,18.253902254343306 205.0,17.846635317835027 206.0,17.354499966191387 207.0,16.897988097315178 208.0,16.588869738115324 209.0,16.502827843803622" stroke="black" stroke-width="0" /></g></g><g transform="translate(750,190.62499999999943)"><rect fill="#212b38" height="21.875000000000018" stroke="black" stroke-width="0" width="200" x="0" y="0" /><rect fill="#08c6ab" height="21.875000000000018" stroke="black" stroke-width="0" width="200" x="0" y="0.0" /><text alignment-baseline="middle" fill="white" font-family="Helvetica" font-size="12" font-weight="normal" stroke="black" stroke-width="0.1" text-anchor="middle" x="100.0" y="10.937500000000009">DMA</text><text alignment-baseline="middle" fill="white" font-family="Helvetica" font-size="12" font-weight="normal" stroke="black" stroke-width="0.1" text-anchor="start" x="210" y="21.875000000000018">0x40020000</text></g><g transform="translate(750,165.62499999999943)"><rect fill="#212b38" height="25" stroke="black" stroke-width="0" width="200" x="0" y="0" /><g><rect fill="#37465b" height="25.0" width="200" x="0" y="0.0" /><polyline fill="none" points="0,10.0 0,0.0 200,0.0 200,10.0" stroke="black" stroke-width="0" /><polyline fill="none" points="0,15.0 0,25.0 200,25.0 200,15.0" stroke="black" stroke-width="0" /><polyline fill="none" points="-10.0,8.5 -9.0,8.377582561890373 -8.0,8.04030230586814 -7.0,7.570737201667703 -6.0,7.083853163452858 -5.0,6.698856384453066 -4.0,6.510007503399555 -3.0,6.5635433127092035 -2.0,6.846356379136388 -1.0,7.289204200569221 0.0,7.783662185463227 1.0,8.208669774291259 2.0,8.460170286650365 3.0,8.476587625728023 4.0,8.253902254343304 5.0,7.846635317835026 6.0,7.354499966191386 7.0,6.897988097315176 8.0,6.588869738115323 9.0,6.5028278438036216" stroke="black" stroke-width="0" /><polyline fill="none" points="-10.0,18.5 -9.0,18.37758256189037 -8.0,18.04030230586814 -7.0,17.570737201667704 -6.0,17.083853163452858 -5.0,16.698856384453066 -4.0,16.510007503399553 -3.0,16.563543312709204 -2.0,16.846356379136388 -1.0,17.28920420056922 0.0,17.783662185463225 1.0,18.20866977429126 2.0,18.460170286650367 3.0,18.476587625728023 4.0,18.253902254343306 5.0,17.846635317835027 6.0,17.354499966191387 7.0,16.897988097315178 8.0,16.588869738115324 9.0,16.502827843803622" stroke="black" stroke-width="0" /><polyline fill="none" points="190.0,8.5 191.0,8.377582561890373 192.0,8.04030230586814 193.0,7.570737201667703 194.0,7.083853163452858 195.0,6.698856384453066 196.0,6.510007503399555 197.0,6.5635433127092035 198.0,6.846356379136388 199.0,7.289204200569221 200.0,7.783662185463227 201.0,8.208669774291259 202.0,8.460170286650365 203.0,8.476587625728023 204.0,8.253902254343304 205.0,7.846635317835026 206.0,7.354499966191386 207.0,6.897988097315176 208.0,6.588869738115323 209.0,6.5028278438036216" stroke="black" stroke-width="0" /><polyline fill="none" points="190.0,18.5 191.0,18.37758256189037 192.0,18.04030230586814 193.0,17.570737201667704 194.0,17.083853163452858 195.0,16.698856384453066 196.0,16.510007503399553 197.0,16.563543312709204 198.0,16.846356379136388 199.0,17.28920420056922 200.0,17.783662185463225 201.0,18.20866977429126 202.0,18.460170286650367 203.0,18.476587625728023 204.0,18.253902254343306 205.0,17.846635317835027 206.0,17.354499966191387 207.0,16.897988097315178 208.0,16.588869738115324 209.0,16.502827843803622" stroke="black" stroke-width="0" /></g></g><g transform="translate(750,143.7499999999994)"><rect fill="#212b38" height="21.875000000000018" stroke="black" stroke-width="0" width="200" x="0" y="0" /><rect fill="#08c6ab" height="21.875000000000018" stroke="black" stroke-width="0" width="200" x="0" y="0.0" /><text alignment-baseline="middle" fill="white" font-family="Helvetica" font-size="12" font-weight="normal" stroke="black" stroke-width="0.1" text-anchor="middle" x="100.0" y="10.937500000000009">RCC</text><text alignment-baseline="middle" fill="white" font-family="Helvetica" font-size="12" font-weight="normal" stroke="black" stroke-width="0.1" text-anchor="start" x="210" y="21.875000000000018">0x40021000</text></g><g transform="translate(750,118.7499999999994)"><rect fill="#212b38" height="25" stroke="black" stroke-width="0" width="200" x="0" y="0" /><g><rect fill="#37465b" height="25.0" width="200" x="0" y="0.0" /><polyline fill="none" points="0,10.0 0,0.0 200,0.0 200,10.0" stroke="black" stroke-width="0" /><polyline fill="none" points="0,15.0 0,25.0 200,25.0 200,15.0" stroke="black" stroke-width="0" /><polyline fill="none" points="-10.0,8.5 -9.0,8.377582561890373 -8.0,8.04030230586814 -7.0,7.570737201667703 -6.0,7.083853163452858 -5.0,6.698856384453066 -4.0,6.510007503399555 -3.0,6.5635433127092035 -2.0,6.846356379136388 -1.0,7.289204200569221 0.0,7.783662185463227 1.0,8.208669774291259 2.0,8.460170286650365 3.0,8.476587625728023 4.0,8.253902254343304 5.0,7.846635317835026 6.0,7.354499966191386 7.0,6.897988097315176 8.0,6.588869738115323 9.0,6.5028278438036216" stroke="black" stroke-width="0" /><polyline fill="none" points="-10.0,18.5 -9.0,18.37758256189037 -8.0,18.04030230586814 -7.0,17.570737201667704 -6.0,17.083853163452858 -5.0,16.698856384453066 -4.0,16.510007503399553 -3.0,16.563543312709204 -2.0,16.846356379136388 -1.0,17.28920420056922 0.0,17.783662185463225 1.0,18.20866977429126 2.0,18.460170286650367 3.0,18.476587625728023 4.0,18.253902254343306 5.0,17.846635317835027 6.0,17.354499966191387 7.0,16.897988097315178 8.0,16.588869738115324 9.0,16.502827843803622" stroke="black" stroke-width="0" /><polyline fill="none" points="190.0,8.5 191.0,8.377582561890373 192.0,8.04030230586814 193.0,7.570737201667703 194.0,7.083853163452858 195.0,6.698856384453066 196.0,6.510007503399555 197.0,6.5635433127092035 198.0,6.846356379136388 199.0,7.289204200569221 200.0,7.783662185463227 201.0,8.208669774291259 202.0,8.460170286650365 203.0,8.476587625728023 204.0,8.253902254343304 205.0,7.846635317835026 206.0,7.354499966191386 207.0,6.897988097315176 208.0,6.588869738115323 209.0,6.5028278438036216" stroke="black" stroke-width="0" /><polyline fill="none" points="190.0,18.5 191.0,18.37758256189037 192.0,18.04030230586814 193.0,17.570737201667704 194.0,17.083853163452858 195.0,16.698856384453066 196.0,16.510007503399553 197.0,16.563543312709204 198.0,16.846356379136388 199.0,17.28920420056922 200.0,17.783662185463225 201.0,18.20866977429126 202.0,18.460170286650367 203.0,18.476587625728023 204.0,18.253902254343306 205.0,17.846635317835027 206.0,17.354499966191387 207.0,16.897988097315178 208.0,16.588869738115324 209.0,16.502827843803622" stroke="black" stroke-width="0" /></g></g><g transform="translate(750,96.87499999999939)"><rect fill="#212b38" height="21.875000000000018" stroke="black" stroke-width="0" width="200" x="0" y="0" /><rect fill="#08c6ab" height="21.875000000000018" stroke="black" stroke-width="0" width="200" x="0" y="0.0" /><text alignment-baseline="middle" fill="white" font-family="Helvetica" font-size="12" font-weight="normal" stroke="black" stroke-width="0.1" text-anchor="middle" x="100.0" y="10.937500000000009">Flash Interface</text><text alignment-baseline="middle" fill="white" font-family="Helvetica" font-size="12" font-weight="normal" stroke="black" stroke-width="0.1" text-anchor="start" x="210" y="21.875000000000018">0x40022000</text></g><g transform="translate(750,71.87499999999939)"><rect fill="#212b38" height="25" stroke="black" stroke-width="0" width="200" x="0" y="0" /><g><rect fill="#37465b" height="25.0" width="200" x="0" y="0.0" /><polyline fill="none" points="0,10.0 0,0.0 200,0.0 200,10.0" stroke="black" stroke-width="0" /><polyline fill="none" points="0,15.0 0,25.0 200,25.0 200,15.0" stroke="black" stroke-width="0" /><polyline fill="none" points="-10.0,8.5 -9.0,8.377582561890373 -8.0,8.04030230586814 -7.0,7.570737201667703 -6.0,7.083853163452858 -5.0,6.698856384453066 -4.0,6.510007503399555 -3.0,6.5635433127092035 -2.0,6.846356379136388 -1.0,7.289204200569221 0.0,7.783662185463227 1.0,8.208669774291259 2.0,8.460170286650365 3.0,8.476587625728023 4.0,8.253902254343304 5.0,7.846635317835026 6.0,7.354499966191386 7.0,6.897988097315176 8.0,6.588869738115323 9.0,6.5028278438036216" stroke="black" stroke-width="0" /><polyline fill="none" points="-10.0,18.5 -9.0,18.37758256189037 -8.0,18.04030230586814 -7.0,17.570737201667704 -6.0,17.083853163452858 -5.0,16.698856384453066 -4.0,16.510007503399553 -3.0,16.563543312709204 -2.0,16.846356379136388 -1.0,17.28920420056922 0.0,17.783662185463225 1.0,18.20866977429126 2.0,18.460170286650367 3.0,18.476587625728023 4.0,18.253902254343306 5.0,17.846635317835027 6.0,17.354499966191387 7.0,16.897988097315178 8.0,16.588869738115324 9.0,16.502827843803622" stroke="black" stroke-width="0" /><polyline fill="none" points="190.0,8.5 191.0,8.377582561890373 192.0,8.04030230586814 193.0,7.570737201667703 194.0,7.083853163452858 195.0,6.698856384453066 196.0,6.510007503399555 197.0,6.5635433127092035 198.0,6.846356379136388 199.0,7.289204200569221 200.0,7.783662185463227 201.0,8.208669774291259 202.0,8.460170286650365 203.0,8.476587625728023 204.0,8.253902254343304 205.0,7.846635317835026 206.0,7.354499966191386 207.0,6.897988097315176 208.0,6.588869738115323 209.0,6.5028278438036216" stroke="black" stroke-width="0" /><polyline fill="none" points="190.0,18.5 191.0,18.37758256189037 192.0,18.04030230586814 193.0,17.570737201667704 194.0,17.083853163452858 195.0,16.698856384453066 196.0,16.510007503399553 197.0,16.563543312709204 198.0,16.846356379136388 199.0,17.28920420056922 200.0,17.783662185463225 201.0,18.20866977429126 202.0,18.460170286650367 203.0,18.476587625728023 204.0,18.253902254343306 205.0,17.846635317835027 206.0,17.354499966191387 207.0,16.897988097315178 208.0,16.588869738115324 209.0,16.502827843803622" stroke="black" stroke-width="0" /></g></g><g transform="translate(750,49.999999999999375)"><rect fill="#212b38" height="21.875000000000018" stroke="black" stroke-width="0" width="200" x="0" y="0" /><rect fill="#08c6ab" height="21.875000000000018" stroke="black" stroke-width="0" width="200" x="0" y="0.0" /><text alignment-baseline="middle" fill="white" font-family="Helvetica" font-size="12" font-weight="normal" stroke="black" stroke-width="0.1" text-anchor="middle" x="100.0" y="10.937500000000009">CRC</text><text alignment-baseline="middle" fill="white" font-family="Helvetica" font-size="12" font-weight="normal" stroke="black" stroke-width="0.1" text-anchor="start" x="210" y="21.875000000000018">0x40023000</text></g></g><g><g transform="translate(100,50)" /><g transform="translate(450,700)" /><g transform="translate(450,550)" /><g transform="translate(450,50)" /><g transform="translate(750,984.3749999999999)" /><g transform="translate(750,959.3749999999999)" /><g transform="translate(750,893.7499999999998)" /><g transform="translate(750,868.7499999999998)" /><g transform="translate(750,846.8749999999998)" /><g transform="translate(750,821.8749999999998)" /><g transform="translate(750,778.1249999999998)" /><g transform="translate(750,753.1249999999998)" /><g transform="translate(750,643.7499999999997)" /><g transform="translate(750,618.7499999999997)" /><g transform="translate(750,574.9999999999997)" /><g transform="translate(750,549.9999999999997)" /><g transform="translate(750,396.87499999999955)" /><g transform="translate(750,371.87499999999955)" /><g transform="translate(750,284.3749999999995)" /><g transform="translate(750,259.3749999999995)" /><g transform="translate(750,237.49999999999946)" /><g transform="translate(750,212.49999999999946)" /><g transform="translate(750,190.62499999999943)" /><g transform="translate(750,165.62499999999943)" /><g transform="translate(750,143.7499999999994)" /><g transform="translate(750,118.7499999999994)" /><g transform="translate(750,96.87499999999939)" /><g transform="translate(750,71.87499999999939)" /><g transform="translate(750,49.999999999999375)" /></g><g><g transform="translate(100,50)"><g /><g /><g /><g /><g /><g /><g /><g /><g /><g /><g /><g /><g /><g /><g /><g /><g /><g /><g /><g /><g /><g /><g /><g /><g /><g /><g /><g /><g /><g /><g /><g /><g /><g /><g /><g /><g /><g /><g /><g /><g /><g /><g /><g /><g /><g /><g /><g /><g /><g /><g /><g /><g /><g /><g /><g /><g /><g /><g /><g /><g /></g><g transform="translate(450,700)"><g /></g><g transform="translate(450,550)"><g /><g /></g><g transform="translate(450,50)"><g /></g><g transform="translate(750,984.3749999999999)"><g /><g /><g /></g><g transform="translate(750,959.3749999999999)"><g /></g><g transform="translate(750,893.7499999999998)"><g /><g /><g /></g><g transform="translate(750,868.7499999999998)"><g /></g><g transform="translate(750,846.8749999999998)"><g /></g><g transform="translate(750,821.8749999999998)"><g /></g><g transform="translate(750,778.1249999999998)"><g /><g /></g><g transform="translate(750,753.1249999999998)"><g /></g><g transform="translate(750,643.7499999999997)"><g /><g /><g /><g /><g /></g><g transform="translate(750,618.7499999999997)"><g /></g><g transform="translate(750,574.9999999999997)"><g /><g /></g><g transform="translate(750,549.9999999999997)"><g /></g><g transform="translate(750,396.87499999999955)"><g /><g /><g /><g /><g /><g /><g /></g><g transform="translate(750,371.87499999999955)"><g /></g><g transform="translate(750,284.3749999999995)"><g /><g /><g /><g /></g><g transform="translate(750,259.3749999999995)"><g /></g><g transform="translate(750,237.49999999999946)"><g /></g><g transform="translate(750,212.49999999999946)"><g /></g><g transform="translate(750,190.62499999999943)"><g /></g><g transform="translate(750,165.62499999999943)"><g /></g><g transform="translate(750,143.7499999999994)"><g /></g><g transform="translate(750,118.7499999999994)"><g /></g><g transform="translate(750,96.87499999999939)"><g /></g><g transform="translate(750,71.87499999999939)"><g /></g><g transform="translate(750,49.999999999999375)"><g /></g></g></svg>